<?xml version="1.0" encoding="UTF-8"?>
<!DOCTYPE svg PUBLIC "-//W3C//DTD SVG 1.1//EN" "http://www.w3.org/Graphics/SVG/1.1/DTD/svg11.dtd">
<svg version="1.1" xmlns="http://www.w3.org/2000/svg" xmlns:xlink="http://www.w3.org/1999/xlink" x="0px" y="0px" width="288" height="180" viewBox="0, 0, 288, 180">
  <g id="Layer" opacity="0.5">
    <g>
      <path d="M38.88,44.64 L220.32,44.64 L220.32,46.08 L38.88,46.08 L38.88,44.64 z" fill="#F49600"/>
      <path d="M38.88,105.12 L220.32,105.12 L220.32,110.88 L38.88,110.88 L38.88,105.12 z" fill="#F49600"/>
      <path d="M38.88,97.92 L220.32,97.92 L220.32,103.68 L38.88,103.68 L38.88,97.92 z" fill="#F49600"/>
      <path d="M38.88,90.72 L220.32,90.72 L220.32,96.48 L38.88,96.48 L38.88,90.72 z" fill="#F49600"/>
      <path d="M38.88,83.52 L220.32,83.52 L220.32,89.28 L38.88,89.28 L38.88,83.52 z" fill="#F49600"/>
      <path d="M38.88,76.32 L220.32,76.32 L220.32,82.08 L38.88,82.08 L38.88,76.32 z" fill="#F49600"/>
      <path d="M38.88,69.12 L220.32,69.12 L220.32,74.88 L38.88,74.88 L38.88,69.12 z" fill="#F49600"/>
      <path d="M38.88,61.92 L220.32,61.92 L220.32,67.68 L38.88,67.68 L38.88,61.92 z" fill="#F49600"/>
      <path d="M38.88,54.72 L220.32,54.72 L220.32,60.48 L38.88,60.48 L38.88,54.72 z" fill="#F49600"/>
      <path d="M38.88,47.52 L220.32,47.52 L220.32,53.28 L38.88,53.28 L38.88,47.52 z" fill="#F49600"/>
      <path d="M38.88,112.32 L220.32,112.32 L220.32,113.76 L38.88,113.76 L38.88,112.32 z" fill="#F49600"/>
    </g>
  </g>
  <g id="Layer_2" opacity="0.492">
    <g>
      <g>
        <path d="M41.76,100.8 C41.76,100.005 42.405,99.36 43.2,99.36 C43.995,99.36 44.64,100.005 44.64,100.8 C44.64,101.595 43.995,102.24 43.2,102.24 C42.405,102.24 41.76,101.595 41.76,100.8 z" fill="#FFFFFF"/>
        <path d="M48.96,100.8 C48.96,100.005 49.605,99.36 50.4,99.36 C51.195,99.36 51.84,100.005 51.84,100.8 C51.84,101.595 51.195,102.24 50.4,102.24 C49.605,102.24 48.96,101.595 48.96,100.8 z" fill="#FFFFFF"/>
        <path d="M56.16,100.8 C56.16,100.005 56.805,99.36 57.6,99.36 C58.395,99.36 59.04,100.005 59.04,100.8 C59.04,101.595 58.395,102.24 57.6,102.24 C56.805,102.24 56.16,101.595 56.16,100.8 z" fill="#FFFFFF"/>
        <path d="M63.36,100.8 C63.36,100.005 64.005,99.36 64.8,99.36 C65.595,99.36 66.24,100.005 66.24,100.8 C66.24,101.595 65.595,102.24 64.8,102.24 C64.005,102.24 63.36,101.595 63.36,100.8 z" fill="#FFFFFF"/>
        <path d="M70.56,100.8 C70.56,100.005 71.205,99.36 72,99.36 C72.795,99.36 73.44,100.005 73.44,100.8 C73.44,101.595 72.795,102.24 72,102.24 C71.205,102.24 70.56,101.595 70.56,100.8 z" fill="#FFFFFF"/>
        <path d="M77.76,100.8 C77.76,100.005 78.405,99.36 79.2,99.36 C79.995,99.36 80.64,100.005 80.64,100.8 C80.64,101.595 79.995,102.24 79.2,102.24 C78.405,102.24 77.76,101.595 77.76,100.8 z" fill="#FFFFFF"/>
        <path d="M84.96,100.8 C84.96,100.005 85.605,99.36 86.4,99.36 C87.195,99.36 87.84,100.005 87.84,100.8 C87.84,101.595 87.195,102.24 86.4,102.24 C85.605,102.24 84.96,101.595 84.96,100.8 z" fill="#FFFFFF"/>
        <path d="M92.16,100.8 C92.16,100.005 92.805,99.36 93.6,99.36 C94.395,99.36 95.04,100.005 95.04,100.8 C95.04,101.595 94.395,102.24 93.6,102.24 C92.805,102.24 92.16,101.595 92.16,100.8 z" fill="#FFFFFF"/>
        <path d="M99.36,100.8 C99.36,100.005 100.005,99.36 100.8,99.36 C101.595,99.36 102.24,100.005 102.24,100.8 C102.24,101.595 101.595,102.24 100.8,102.24 C100.005,102.24 99.36,101.595 99.36,100.8 z" fill="#FFFFFF"/>
        <path d="M106.56,100.8 C106.56,100.005 107.205,99.36 108,99.36 C108.795,99.36 109.44,100.005 109.44,100.8 C109.44,101.595 108.795,102.24 108,102.24 C107.205,102.24 106.56,101.595 106.56,100.8 z" fill="#FFFFFF"/>
        <path d="M113.76,100.8 C113.76,100.005 114.405,99.36 115.2,99.36 C115.995,99.36 116.64,100.005 116.64,100.8 C116.64,101.595 115.995,102.24 115.2,102.24 C114.405,102.24 113.76,101.595 113.76,100.8 z" fill="#FFFFFF"/>
        <path d="M120.96,100.8 C120.96,100.005 121.605,99.36 122.4,99.36 C123.195,99.36 123.84,100.005 123.84,100.8 C123.84,101.595 123.195,102.24 122.4,102.24 C121.605,102.24 120.96,101.595 120.96,100.8 z" fill="#FFFFFF"/>
        <path d="M128.16,100.8 C128.16,100.005 128.805,99.36 129.6,99.36 C130.395,99.36 131.04,100.005 131.04,100.8 C131.04,101.595 130.395,102.24 129.6,102.24 C128.805,102.24 128.16,101.595 128.16,100.8 z" fill="#FFFFFF"/>
        <path d="M135.36,100.8 C135.36,100.005 136.005,99.36 136.8,99.36 C137.595,99.36 138.24,100.005 138.24,100.8 C138.24,101.595 137.595,102.24 136.8,102.24 C136.005,102.24 135.36,101.595 135.36,100.8 z" fill="#FFFFFF"/>
        <path d="M142.56,100.8 C142.56,100.005 143.205,99.36 144,99.36 C144.795,99.36 145.44,100.005 145.44,100.8 C145.44,101.595 144.795,102.24 144,102.24 C143.205,102.24 142.56,101.595 142.56,100.8 z" fill="#FFFFFF"/>
        <path d="M149.76,100.8 C149.76,100.005 150.405,99.36 151.2,99.36 C151.995,99.36 152.64,100.005 152.64,100.8 C152.64,101.595 151.995,102.24 151.2,102.24 C150.405,102.24 149.76,101.595 149.76,100.8 z" fill="#FFFFFF"/>
        <path d="M156.96,100.8 C156.96,100.005 157.605,99.36 158.4,99.36 C159.195,99.36 159.84,100.005 159.84,100.8 C159.84,101.595 159.195,102.24 158.4,102.24 C157.605,102.24 156.96,101.595 156.96,100.8 z" fill="#FFFFFF"/>
        <path d="M164.16,100.8 C164.16,100.005 164.805,99.36 165.6,99.36 C166.395,99.36 167.04,100.005 167.04,100.8 C167.04,101.595 166.395,102.24 165.6,102.24 C164.805,102.24 164.16,101.595 164.16,100.8 z" fill="#FFFFFF"/>
        <path d="M171.36,100.8 C171.36,100.005 172.005,99.36 172.8,99.36 C173.595,99.36 174.24,100.005 174.24,100.8 C174.24,101.595 173.595,102.24 172.8,102.24 C172.005,102.24 171.36,101.595 171.36,100.8 z" fill="#FFFFFF"/>
        <path d="M178.56,100.8 C178.56,100.005 179.205,99.36 180,99.36 C180.795,99.36 181.44,100.005 181.44,100.8 C181.44,101.595 180.795,102.24 180,102.24 C179.205,102.24 178.56,101.595 178.56,100.8 z" fill="#FFFFFF"/>
        <path d="M185.76,100.8 C185.76,100.005 186.405,99.36 187.2,99.36 C187.995,99.36 188.64,100.005 188.64,100.8 C188.64,101.595 187.995,102.24 187.2,102.24 C186.405,102.24 185.76,101.595 185.76,100.8 z" fill="#FFFFFF"/>
        <path d="M192.96,100.8 C192.96,100.005 193.605,99.36 194.4,99.36 C195.195,99.36 195.84,100.005 195.84,100.8 C195.84,101.595 195.195,102.24 194.4,102.24 C193.605,102.24 192.96,101.595 192.96,100.8 z" fill="#FFFFFF"/>
        <path d="M200.16,100.8 C200.16,100.005 200.805,99.36 201.6,99.36 C202.395,99.36 203.04,100.005 203.04,100.8 C203.04,101.595 202.395,102.24 201.6,102.24 C200.805,102.24 200.16,101.595 200.16,100.8 z" fill="#FFFFFF"/>
        <path d="M207.36,100.8 C207.36,100.005 208.005,99.36 208.8,99.36 C209.595,99.36 210.24,100.005 210.24,100.8 C210.24,101.595 209.595,102.24 208.8,102.24 C208.005,102.24 207.36,101.595 207.36,100.8 z" fill="#FFFFFF"/>
        <path d="M214.56,100.8 C214.56,100.005 215.205,99.36 216,99.36 C216.795,99.36 217.44,100.005 217.44,100.8 C217.44,101.595 216.795,102.24 216,102.24 C215.205,102.24 214.56,101.595 214.56,100.8 z" fill="#FFFFFF"/>
      </g>
      <g>
        <path d="M41.76,93.6 C41.76,92.805 42.405,92.16 43.2,92.16 C43.995,92.16 44.64,92.805 44.64,93.6 C44.64,94.395 43.995,95.04 43.2,95.04 C42.405,95.04 41.76,94.395 41.76,93.6 z" fill="#FFFFFF"/>
        <path d="M48.96,93.6 C48.96,92.805 49.605,92.16 50.4,92.16 C51.195,92.16 51.84,92.805 51.84,93.6 C51.84,94.395 51.195,95.04 50.4,95.04 C49.605,95.04 48.96,94.395 48.96,93.6 z" fill="#FFFFFF"/>
        <path d="M56.16,93.6 C56.16,92.805 56.805,92.16 57.6,92.16 C58.395,92.16 59.04,92.805 59.04,93.6 C59.04,94.395 58.395,95.04 57.6,95.04 C56.805,95.04 56.16,94.395 56.16,93.6 z" fill="#FFFFFF"/>
        <path d="M63.36,93.6 C63.36,92.805 64.005,92.16 64.8,92.16 C65.595,92.16 66.24,92.805 66.24,93.6 C66.24,94.395 65.595,95.04 64.8,95.04 C64.005,95.04 63.36,94.395 63.36,93.6 z" fill="#FFFFFF"/>
        <path d="M70.56,93.6 C70.56,92.805 71.205,92.16 72,92.16 C72.795,92.16 73.44,92.805 73.44,93.6 C73.44,94.395 72.795,95.04 72,95.04 C71.205,95.04 70.56,94.395 70.56,93.6 z" fill="#FFFFFF"/>
        <path d="M77.76,93.6 C77.76,92.805 78.405,92.16 79.2,92.16 C79.995,92.16 80.64,92.805 80.64,93.6 C80.64,94.395 79.995,95.04 79.2,95.04 C78.405,95.04 77.76,94.395 77.76,93.6 z" fill="#FFFFFF"/>
        <path d="M84.96,93.6 C84.96,92.805 85.605,92.16 86.4,92.16 C87.195,92.16 87.84,92.805 87.84,93.6 C87.84,94.395 87.195,95.04 86.4,95.04 C85.605,95.04 84.96,94.395 84.96,93.6 z" fill="#FFFFFF"/>
        <path d="M92.16,93.6 C92.16,92.805 92.805,92.16 93.6,92.16 C94.395,92.16 95.04,92.805 95.04,93.6 C95.04,94.395 94.395,95.04 93.6,95.04 C92.805,95.04 92.16,94.395 92.16,93.6 z" fill="#FFFFFF"/>
        <path d="M99.36,93.6 C99.36,92.805 100.005,92.16 100.8,92.16 C101.595,92.16 102.24,92.805 102.24,93.6 C102.24,94.395 101.595,95.04 100.8,95.04 C100.005,95.04 99.36,94.395 99.36,93.6 z" fill="#FFFFFF"/>
        <path d="M106.56,93.6 C106.56,92.805 107.205,92.16 108,92.16 C108.795,92.16 109.44,92.805 109.44,93.6 C109.44,94.395 108.795,95.04 108,95.04 C107.205,95.04 106.56,94.395 106.56,93.6 z" fill="#FFFFFF"/>
        <path d="M113.76,93.6 C113.76,92.805 114.405,92.16 115.2,92.16 C115.995,92.16 116.64,92.805 116.64,93.6 C116.64,94.395 115.995,95.04 115.2,95.04 C114.405,95.04 113.76,94.395 113.76,93.6 z" fill="#FFFFFF"/>
        <path d="M120.96,93.6 C120.96,92.805 121.605,92.16 122.4,92.16 C123.195,92.16 123.84,92.805 123.84,93.6 C123.84,94.395 123.195,95.04 122.4,95.04 C121.605,95.04 120.96,94.395 120.96,93.6 z" fill="#FFFFFF"/>
        <path d="M128.16,93.6 C128.16,92.805 128.805,92.16 129.6,92.16 C130.395,92.16 131.04,92.805 131.04,93.6 C131.04,94.395 130.395,95.04 129.6,95.04 C128.805,95.04 128.16,94.395 128.16,93.6 z" fill="#FFFFFF"/>
        <path d="M135.36,93.6 C135.36,92.805 136.005,92.16 136.8,92.16 C137.595,92.16 138.24,92.805 138.24,93.6 C138.24,94.395 137.595,95.04 136.8,95.04 C136.005,95.04 135.36,94.395 135.36,93.6 z" fill="#FFFFFF"/>
        <path d="M142.56,93.6 C142.56,92.805 143.205,92.16 144,92.16 C144.795,92.16 145.44,92.805 145.44,93.6 C145.44,94.395 144.795,95.04 144,95.04 C143.205,95.04 142.56,94.395 142.56,93.6 z" fill="#FFFFFF"/>
        <path d="M149.76,93.6 C149.76,92.805 150.405,92.16 151.2,92.16 C151.995,92.16 152.64,92.805 152.64,93.6 C152.64,94.395 151.995,95.04 151.2,95.04 C150.405,95.04 149.76,94.395 149.76,93.6 z" fill="#FFFFFF"/>
        <path d="M156.96,93.6 C156.96,92.805 157.605,92.16 158.4,92.16 C159.195,92.16 159.84,92.805 159.84,93.6 C159.84,94.395 159.195,95.04 158.4,95.04 C157.605,95.04 156.96,94.395 156.96,93.6 z" fill="#FFFFFF"/>
        <path d="M164.16,93.6 C164.16,92.805 164.805,92.16 165.6,92.16 C166.395,92.16 167.04,92.805 167.04,93.6 C167.04,94.395 166.395,95.04 165.6,95.04 C164.805,95.04 164.16,94.395 164.16,93.6 z" fill="#FFFFFF"/>
        <path d="M171.36,93.6 C171.36,92.805 172.005,92.16 172.8,92.16 C173.595,92.16 174.24,92.805 174.24,93.6 C174.24,94.395 173.595,95.04 172.8,95.04 C172.005,95.04 171.36,94.395 171.36,93.6 z" fill="#FFFFFF"/>
        <path d="M178.56,93.6 C178.56,92.805 179.205,92.16 180,92.16 C180.795,92.16 181.44,92.805 181.44,93.6 C181.44,94.395 180.795,95.04 180,95.04 C179.205,95.04 178.56,94.395 178.56,93.6 z" fill="#FFFFFF"/>
        <path d="M185.76,93.6 C185.76,92.805 186.405,92.16 187.2,92.16 C187.995,92.16 188.64,92.805 188.64,93.6 C188.64,94.395 187.995,95.04 187.2,95.04 C186.405,95.04 185.76,94.395 185.76,93.6 z" fill="#FFFFFF"/>
        <path d="M192.96,93.6 C192.96,92.805 193.605,92.16 194.4,92.16 C195.195,92.16 195.84,92.805 195.84,93.6 C195.84,94.395 195.195,95.04 194.4,95.04 C193.605,95.04 192.96,94.395 192.96,93.6 z" fill="#FFFFFF"/>
        <path d="M200.16,93.6 C200.16,92.805 200.805,92.16 201.6,92.16 C202.395,92.16 203.04,92.805 203.04,93.6 C203.04,94.395 202.395,95.04 201.6,95.04 C200.805,95.04 200.16,94.395 200.16,93.6 z" fill="#FFFFFF"/>
        <path d="M207.36,93.6 C207.36,92.805 208.005,92.16 208.8,92.16 C209.595,92.16 210.24,92.805 210.24,93.6 C210.24,94.395 209.595,95.04 208.8,95.04 C208.005,95.04 207.36,94.395 207.36,93.6 z" fill="#FFFFFF"/>
        <path d="M214.56,93.6 C214.56,92.805 215.205,92.16 216,92.16 C216.795,92.16 217.44,92.805 217.44,93.6 C217.44,94.395 216.795,95.04 216,95.04 C215.205,95.04 214.56,94.395 214.56,93.6 z" fill="#FFFFFF"/>
      </g>
      <g>
        <path d="M41.76,86.4 C41.76,85.605 42.405,84.96 43.2,84.96 C43.995,84.96 44.64,85.605 44.64,86.4 C44.64,87.195 43.995,87.84 43.2,87.84 C42.405,87.84 41.76,87.195 41.76,86.4 z" fill="#FFFFFF"/>
        <path d="M48.96,86.4 C48.96,85.605 49.605,84.96 50.4,84.96 C51.195,84.96 51.84,85.605 51.84,86.4 C51.84,87.195 51.195,87.84 50.4,87.84 C49.605,87.84 48.96,87.195 48.96,86.4 z" fill="#FFFFFF"/>
        <path d="M56.16,86.4 C56.16,85.605 56.805,84.96 57.6,84.96 C58.395,84.96 59.04,85.605 59.04,86.4 C59.04,87.195 58.395,87.84 57.6,87.84 C56.805,87.84 56.16,87.195 56.16,86.4 z" fill="#FFFFFF"/>
        <path d="M63.36,86.4 C63.36,85.605 64.005,84.96 64.8,84.96 C65.595,84.96 66.24,85.605 66.24,86.4 C66.24,87.195 65.595,87.84 64.8,87.84 C64.005,87.84 63.36,87.195 63.36,86.4 z" fill="#FFFFFF"/>
        <path d="M70.56,86.4 C70.56,85.605 71.205,84.96 72,84.96 C72.795,84.96 73.44,85.605 73.44,86.4 C73.44,87.195 72.795,87.84 72,87.84 C71.205,87.84 70.56,87.195 70.56,86.4 z" fill="#FFFFFF"/>
        <path d="M77.76,86.4 C77.76,85.605 78.405,84.96 79.2,84.96 C79.995,84.96 80.64,85.605 80.64,86.4 C80.64,87.195 79.995,87.84 79.2,87.84 C78.405,87.84 77.76,87.195 77.76,86.4 z" fill="#FFFFFF"/>
        <path d="M84.96,86.4 C84.96,85.605 85.605,84.96 86.4,84.96 C87.195,84.96 87.84,85.605 87.84,86.4 C87.84,87.195 87.195,87.84 86.4,87.84 C85.605,87.84 84.96,87.195 84.96,86.4 z" fill="#FFFFFF"/>
        <path d="M92.16,86.4 C92.16,85.605 92.805,84.96 93.6,84.96 C94.395,84.96 95.04,85.605 95.04,86.4 C95.04,87.195 94.395,87.84 93.6,87.84 C92.805,87.84 92.16,87.195 92.16,86.4 z" fill="#FFFFFF"/>
        <path d="M99.36,86.4 C99.36,85.605 100.005,84.96 100.8,84.96 C101.595,84.96 102.24,85.605 102.24,86.4 C102.24,87.195 101.595,87.84 100.8,87.84 C100.005,87.84 99.36,87.195 99.36,86.4 z" fill="#FFFFFF"/>
        <path d="M106.56,86.4 C106.56,85.605 107.205,84.96 108,84.96 C108.795,84.96 109.44,85.605 109.44,86.4 C109.44,87.195 108.795,87.84 108,87.84 C107.205,87.84 106.56,87.195 106.56,86.4 z" fill="#FFFFFF"/>
        <path d="M113.76,86.4 C113.76,85.605 114.405,84.96 115.2,84.96 C115.995,84.96 116.64,85.605 116.64,86.4 C116.64,87.195 115.995,87.84 115.2,87.84 C114.405,87.84 113.76,87.195 113.76,86.4 z" fill="#FFFFFF"/>
        <path d="M120.96,86.4 C120.96,85.605 121.605,84.96 122.4,84.96 C123.195,84.96 123.84,85.605 123.84,86.4 C123.84,87.195 123.195,87.84 122.4,87.84 C121.605,87.84 120.96,87.195 120.96,86.4 z" fill="#FFFFFF"/>
        <path d="M128.16,86.4 C128.16,85.605 128.805,84.96 129.6,84.96 C130.395,84.96 131.04,85.605 131.04,86.4 C131.04,87.195 130.395,87.84 129.6,87.84 C128.805,87.84 128.16,87.195 128.16,86.4 z" fill="#FFFFFF"/>
        <path d="M135.36,86.4 C135.36,85.605 136.005,84.96 136.8,84.96 C137.595,84.96 138.24,85.605 138.24,86.4 C138.24,87.195 137.595,87.84 136.8,87.84 C136.005,87.84 135.36,87.195 135.36,86.4 z" fill="#FFFFFF"/>
        <path d="M142.56,86.4 C142.56,85.605 143.205,84.96 144,84.96 C144.795,84.96 145.44,85.605 145.44,86.4 C145.44,87.195 144.795,87.84 144,87.84 C143.205,87.84 142.56,87.195 142.56,86.4 z" fill="#FFFFFF"/>
        <path d="M149.76,86.4 C149.76,85.605 150.405,84.96 151.2,84.96 C151.995,84.96 152.64,85.605 152.64,86.4 C152.64,87.195 151.995,87.84 151.2,87.84 C150.405,87.84 149.76,87.195 149.76,86.4 z" fill="#FFFFFF"/>
        <path d="M156.96,86.4 C156.96,85.605 157.605,84.96 158.4,84.96 C159.195,84.96 159.84,85.605 159.84,86.4 C159.84,87.195 159.195,87.84 158.4,87.84 C157.605,87.84 156.96,87.195 156.96,86.4 z" fill="#FFFFFF"/>
        <path d="M164.16,86.4 C164.16,85.605 164.805,84.96 165.6,84.96 C166.395,84.96 167.04,85.605 167.04,86.4 C167.04,87.195 166.395,87.84 165.6,87.84 C164.805,87.84 164.16,87.195 164.16,86.4 z" fill="#FFFFFF"/>
        <path d="M171.36,86.4 C171.36,85.605 172.005,84.96 172.8,84.96 C173.595,84.96 174.24,85.605 174.24,86.4 C174.24,87.195 173.595,87.84 172.8,87.84 C172.005,87.84 171.36,87.195 171.36,86.4 z" fill="#FFFFFF"/>
        <path d="M178.56,86.4 C178.56,85.605 179.205,84.96 180,84.96 C180.795,84.96 181.44,85.605 181.44,86.4 C181.44,87.195 180.795,87.84 180,87.84 C179.205,87.84 178.56,87.195 178.56,86.4 z" fill="#FFFFFF"/>
        <path d="M185.76,86.4 C185.76,85.605 186.405,84.96 187.2,84.96 C187.995,84.96 188.64,85.605 188.64,86.4 C188.64,87.195 187.995,87.84 187.2,87.84 C186.405,87.84 185.76,87.195 185.76,86.4 z" fill="#FFFFFF"/>
        <path d="M192.96,86.4 C192.96,85.605 193.605,84.96 194.4,84.96 C195.195,84.96 195.84,85.605 195.84,86.4 C195.84,87.195 195.195,87.84 194.4,87.84 C193.605,87.84 192.96,87.195 192.96,86.4 z" fill="#FFFFFF"/>
        <path d="M200.16,86.4 C200.16,85.605 200.805,84.96 201.6,84.96 C202.395,84.96 203.04,85.605 203.04,86.4 C203.04,87.195 202.395,87.84 201.6,87.84 C200.805,87.84 200.16,87.195 200.16,86.4 z" fill="#FFFFFF"/>
        <path d="M207.36,86.4 C207.36,85.605 208.005,84.96 208.8,84.96 C209.595,84.96 210.24,85.605 210.24,86.4 C210.24,87.195 209.595,87.84 208.8,87.84 C208.005,87.84 207.36,87.195 207.36,86.4 z" fill="#FFFFFF"/>
        <path d="M214.56,86.4 C214.56,85.605 215.205,84.96 216,84.96 C216.795,84.96 217.44,85.605 217.44,86.4 C217.44,87.195 216.795,87.84 216,87.84 C215.205,87.84 214.56,87.195 214.56,86.4 z" fill="#FFFFFF"/>
      </g>
      <g>
        <path d="M41.76,79.2 C41.76,78.405 42.405,77.76 43.2,77.76 C43.995,77.76 44.64,78.405 44.64,79.2 C44.64,79.995 43.995,80.64 43.2,80.64 C42.405,80.64 41.76,79.995 41.76,79.2 z" fill="#FFFFFF"/>
        <path d="M48.96,79.2 C48.96,78.405 49.605,77.76 50.4,77.76 C51.195,77.76 51.84,78.405 51.84,79.2 C51.84,79.995 51.195,80.64 50.4,80.64 C49.605,80.64 48.96,79.995 48.96,79.2 z" fill="#FFFFFF"/>
        <path d="M56.16,79.2 C56.16,78.405 56.805,77.76 57.6,77.76 C58.395,77.76 59.04,78.405 59.04,79.2 C59.04,79.995 58.395,80.64 57.6,80.64 C56.805,80.64 56.16,79.995 56.16,79.2 z" fill="#FFFFFF"/>
        <path d="M63.36,79.2 C63.36,78.405 64.005,77.76 64.8,77.76 C65.595,77.76 66.24,78.405 66.24,79.2 C66.24,79.995 65.595,80.64 64.8,80.64 C64.005,80.64 63.36,79.995 63.36,79.2 z" fill="#FFFFFF"/>
        <path d="M70.56,79.2 C70.56,78.405 71.205,77.76 72,77.76 C72.795,77.76 73.44,78.405 73.44,79.2 C73.44,79.995 72.795,80.64 72,80.64 C71.205,80.64 70.56,79.995 70.56,79.2 z" fill="#FFFFFF"/>
        <path d="M77.76,79.2 C77.76,78.405 78.405,77.76 79.2,77.76 C79.995,77.76 80.64,78.405 80.64,79.2 C80.64,79.995 79.995,80.64 79.2,80.64 C78.405,80.64 77.76,79.995 77.76,79.2 z" fill="#FFFFFF"/>
        <path d="M84.96,79.2 C84.96,78.405 85.605,77.76 86.4,77.76 C87.195,77.76 87.84,78.405 87.84,79.2 C87.84,79.995 87.195,80.64 86.4,80.64 C85.605,80.64 84.96,79.995 84.96,79.2 z" fill="#FFFFFF"/>
        <path d="M92.16,79.2 C92.16,78.405 92.805,77.76 93.6,77.76 C94.395,77.76 95.04,78.405 95.04,79.2 C95.04,79.995 94.395,80.64 93.6,80.64 C92.805,80.64 92.16,79.995 92.16,79.2 z" fill="#FFFFFF"/>
        <path d="M99.36,79.2 C99.36,78.405 100.005,77.76 100.8,77.76 C101.595,77.76 102.24,78.405 102.24,79.2 C102.24,79.995 101.595,80.64 100.8,80.64 C100.005,80.64 99.36,79.995 99.36,79.2 z" fill="#FFFFFF"/>
        <path d="M106.56,79.2 C106.56,78.405 107.205,77.76 108,77.76 C108.795,77.76 109.44,78.405 109.44,79.2 C109.44,79.995 108.795,80.64 108,80.64 C107.205,80.64 106.56,79.995 106.56,79.2 z" fill="#FFFFFF"/>
        <path d="M113.76,79.2 C113.76,78.405 114.405,77.76 115.2,77.76 C115.995,77.76 116.64,78.405 116.64,79.2 C116.64,79.995 115.995,80.64 115.2,80.64 C114.405,80.64 113.76,79.995 113.76,79.2 z" fill="#FFFFFF"/>
        <path d="M120.96,79.2 C120.96,78.405 121.605,77.76 122.4,77.76 C123.195,77.76 123.84,78.405 123.84,79.2 C123.84,79.995 123.195,80.64 122.4,80.64 C121.605,80.64 120.96,79.995 120.96,79.2 z" fill="#FFFFFF"/>
        <path d="M128.16,79.2 C128.16,78.405 128.805,77.76 129.6,77.76 C130.395,77.76 131.04,78.405 131.04,79.2 C131.04,79.995 130.395,80.64 129.6,80.64 C128.805,80.64 128.16,79.995 128.16,79.2 z" fill="#FFFFFF"/>
        <path d="M135.36,79.2 C135.36,78.405 136.005,77.76 136.8,77.76 C137.595,77.76 138.24,78.405 138.24,79.2 C138.24,79.995 137.595,80.64 136.8,80.64 C136.005,80.64 135.36,79.995 135.36,79.2 z" fill="#FFFFFF"/>
        <path d="M142.56,79.2 C142.56,78.405 143.205,77.76 144,77.76 C144.795,77.76 145.44,78.405 145.44,79.2 C145.44,79.995 144.795,80.64 144,80.64 C143.205,80.64 142.56,79.995 142.56,79.2 z" fill="#FFFFFF"/>
        <path d="M149.76,79.2 C149.76,78.405 150.405,77.76 151.2,77.76 C151.995,77.76 152.64,78.405 152.64,79.2 C152.64,79.995 151.995,80.64 151.2,80.64 C150.405,80.64 149.76,79.995 149.76,79.2 z" fill="#FFFFFF"/>
        <path d="M156.96,79.2 C156.96,78.405 157.605,77.76 158.4,77.76 C159.195,77.76 159.84,78.405 159.84,79.2 C159.84,79.995 159.195,80.64 158.4,80.64 C157.605,80.64 156.96,79.995 156.96,79.2 z" fill="#FFFFFF"/>
        <path d="M164.16,79.2 C164.16,78.405 164.805,77.76 165.6,77.76 C166.395,77.76 167.04,78.405 167.04,79.2 C167.04,79.995 166.395,80.64 165.6,80.64 C164.805,80.64 164.16,79.995 164.16,79.2 z" fill="#FFFFFF"/>
        <path d="M171.36,79.2 C171.36,78.405 172.005,77.76 172.8,77.76 C173.595,77.76 174.24,78.405 174.24,79.2 C174.24,79.995 173.595,80.64 172.8,80.64 C172.005,80.64 171.36,79.995 171.36,79.2 z" fill="#FFFFFF"/>
        <path d="M178.56,79.2 C178.56,78.405 179.205,77.76 180,77.76 C180.795,77.76 181.44,78.405 181.44,79.2 C181.44,79.995 180.795,80.64 180,80.64 C179.205,80.64 178.56,79.995 178.56,79.2 z" fill="#FFFFFF"/>
        <path d="M185.76,79.2 C185.76,78.405 186.405,77.76 187.2,77.76 C187.995,77.76 188.64,78.405 188.64,79.2 C188.64,79.995 187.995,80.64 187.2,80.64 C186.405,80.64 185.76,79.995 185.76,79.2 z" fill="#FFFFFF"/>
        <path d="M192.96,79.2 C192.96,78.405 193.605,77.76 194.4,77.76 C195.195,77.76 195.84,78.405 195.84,79.2 C195.84,79.995 195.195,80.64 194.4,80.64 C193.605,80.64 192.96,79.995 192.96,79.2 z" fill="#FFFFFF"/>
        <path d="M200.16,79.2 C200.16,78.405 200.805,77.76 201.6,77.76 C202.395,77.76 203.04,78.405 203.04,79.2 C203.04,79.995 202.395,80.64 201.6,80.64 C200.805,80.64 200.16,79.995 200.16,79.2 z" fill="#FFFFFF"/>
        <path d="M207.36,79.2 C207.36,78.405 208.005,77.76 208.8,77.76 C209.595,77.76 210.24,78.405 210.24,79.2 C210.24,79.995 209.595,80.64 208.8,80.64 C208.005,80.64 207.36,79.995 207.36,79.2 z" fill="#FFFFFF"/>
        <path d="M214.56,79.2 C214.56,78.405 215.205,77.76 216,77.76 C216.795,77.76 217.44,78.405 217.44,79.2 C217.44,79.995 216.795,80.64 216,80.64 C215.205,80.64 214.56,79.995 214.56,79.2 z" fill="#FFFFFF"/>
      </g>
      <g>
        <path d="M41.76,72 C41.76,71.205 42.405,70.56 43.2,70.56 C43.995,70.56 44.64,71.205 44.64,72 C44.64,72.795 43.995,73.44 43.2,73.44 C42.405,73.44 41.76,72.795 41.76,72 z" fill="#FFFFFF"/>
        <path d="M48.96,72 C48.96,71.205 49.605,70.56 50.4,70.56 C51.195,70.56 51.84,71.205 51.84,72 C51.84,72.795 51.195,73.44 50.4,73.44 C49.605,73.44 48.96,72.795 48.96,72 z" fill="#FFFFFF"/>
        <path d="M56.16,72 C56.16,71.205 56.805,70.56 57.6,70.56 C58.395,70.56 59.04,71.205 59.04,72 C59.04,72.795 58.395,73.44 57.6,73.44 C56.805,73.44 56.16,72.795 56.16,72 z" fill="#FFFFFF"/>
        <path d="M63.36,72 C63.36,71.205 64.005,70.56 64.8,70.56 C65.595,70.56 66.24,71.205 66.24,72 C66.24,72.795 65.595,73.44 64.8,73.44 C64.005,73.44 63.36,72.795 63.36,72 z" fill="#FFFFFF"/>
        <path d="M70.56,72 C70.56,71.205 71.205,70.56 72,70.56 C72.795,70.56 73.44,71.205 73.44,72 C73.44,72.795 72.795,73.44 72,73.44 C71.205,73.44 70.56,72.795 70.56,72 z" fill="#FFFFFF"/>
        <path d="M77.76,72 C77.76,71.205 78.405,70.56 79.2,70.56 C79.995,70.56 80.64,71.205 80.64,72 C80.64,72.795 79.995,73.44 79.2,73.44 C78.405,73.44 77.76,72.795 77.76,72 z" fill="#FFFFFF"/>
        <path d="M84.96,72 C84.96,71.205 85.605,70.56 86.4,70.56 C87.195,70.56 87.84,71.205 87.84,72 C87.84,72.795 87.195,73.44 86.4,73.44 C85.605,73.44 84.96,72.795 84.96,72 z" fill="#FFFFFF"/>
        <path d="M92.16,72 C92.16,71.205 92.805,70.56 93.6,70.56 C94.395,70.56 95.04,71.205 95.04,72 C95.04,72.795 94.395,73.44 93.6,73.44 C92.805,73.44 92.16,72.795 92.16,72 z" fill="#FFFFFF"/>
        <path d="M99.36,72 C99.36,71.205 100.005,70.56 100.8,70.56 C101.595,70.56 102.24,71.205 102.24,72 C102.24,72.795 101.595,73.44 100.8,73.44 C100.005,73.44 99.36,72.795 99.36,72 z" fill="#FFFFFF"/>
        <path d="M106.56,72 C106.56,71.205 107.205,70.56 108,70.56 C108.795,70.56 109.44,71.205 109.44,72 C109.44,72.795 108.795,73.44 108,73.44 C107.205,73.44 106.56,72.795 106.56,72 z" fill="#FFFFFF"/>
        <path d="M113.76,72 C113.76,71.205 114.405,70.56 115.2,70.56 C115.995,70.56 116.64,71.205 116.64,72 C116.64,72.795 115.995,73.44 115.2,73.44 C114.405,73.44 113.76,72.795 113.76,72 z" fill="#FFFFFF"/>
        <path d="M120.96,72 C120.96,71.205 121.605,70.56 122.4,70.56 C123.195,70.56 123.84,71.205 123.84,72 C123.84,72.795 123.195,73.44 122.4,73.44 C121.605,73.44 120.96,72.795 120.96,72 z" fill="#FFFFFF"/>
        <path d="M128.16,72 C128.16,71.205 128.805,70.56 129.6,70.56 C130.395,70.56 131.04,71.205 131.04,72 C131.04,72.795 130.395,73.44 129.6,73.44 C128.805,73.44 128.16,72.795 128.16,72 z" fill="#FFFFFF"/>
        <path d="M135.36,72 C135.36,71.205 136.005,70.56 136.8,70.56 C137.595,70.56 138.24,71.205 138.24,72 C138.24,72.795 137.595,73.44 136.8,73.44 C136.005,73.44 135.36,72.795 135.36,72 z" fill="#FFFFFF"/>
        <path d="M142.56,72 C142.56,71.205 143.205,70.56 144,70.56 C144.795,70.56 145.44,71.205 145.44,72 C145.44,72.795 144.795,73.44 144,73.44 C143.205,73.44 142.56,72.795 142.56,72 z" fill="#FFFFFF"/>
        <path d="M149.76,72 C149.76,71.205 150.405,70.56 151.2,70.56 C151.995,70.56 152.64,71.205 152.64,72 C152.64,72.795 151.995,73.44 151.2,73.44 C150.405,73.44 149.76,72.795 149.76,72 z" fill="#FFFFFF"/>
        <path d="M156.96,72 C156.96,71.205 157.605,70.56 158.4,70.56 C159.195,70.56 159.84,71.205 159.84,72 C159.84,72.795 159.195,73.44 158.4,73.44 C157.605,73.44 156.96,72.795 156.96,72 z" fill="#FFFFFF"/>
        <path d="M164.16,72 C164.16,71.205 164.805,70.56 165.6,70.56 C166.395,70.56 167.04,71.205 167.04,72 C167.04,72.795 166.395,73.44 165.6,73.44 C164.805,73.44 164.16,72.795 164.16,72 z" fill="#FFFFFF"/>
        <path d="M171.36,72 C171.36,71.205 172.005,70.56 172.8,70.56 C173.595,70.56 174.24,71.205 174.24,72 C174.24,72.795 173.595,73.44 172.8,73.44 C172.005,73.44 171.36,72.795 171.36,72 z" fill="#FFFFFF"/>
        <path d="M178.56,72 C178.56,71.205 179.205,70.56 180,70.56 C180.795,70.56 181.44,71.205 181.44,72 C181.44,72.795 180.795,73.44 180,73.44 C179.205,73.44 178.56,72.795 178.56,72 z" fill="#FFFFFF"/>
        <path d="M185.76,72 C185.76,71.205 186.405,70.56 187.2,70.56 C187.995,70.56 188.64,71.205 188.64,72 C188.64,72.795 187.995,73.44 187.2,73.44 C186.405,73.44 185.76,72.795 185.76,72 z" fill="#FFFFFF"/>
        <path d="M192.96,72 C192.96,71.205 193.605,70.56 194.4,70.56 C195.195,70.56 195.84,71.205 195.84,72 C195.84,72.795 195.195,73.44 194.4,73.44 C193.605,73.44 192.96,72.795 192.96,72 z" fill="#FFFFFF"/>
        <path d="M200.16,72 C200.16,71.205 200.805,70.56 201.6,70.56 C202.395,70.56 203.04,71.205 203.04,72 C203.04,72.795 202.395,73.44 201.6,73.44 C200.805,73.44 200.16,72.795 200.16,72 z" fill="#FFFFFF"/>
        <path d="M207.36,72 C207.36,71.205 208.005,70.56 208.8,70.56 C209.595,70.56 210.24,71.205 210.24,72 C210.24,72.795 209.595,73.44 208.8,73.44 C208.005,73.44 207.36,72.795 207.36,72 z" fill="#FFFFFF"/>
        <path d="M214.56,72 C214.56,71.205 215.205,70.56 216,70.56 C216.795,70.56 217.44,71.205 217.44,72 C217.44,72.795 216.795,73.44 216,73.44 C215.205,73.44 214.56,72.795 214.56,72 z" fill="#FFFFFF"/>
      </g>
      <g>
        <path d="M41.76,64.8 C41.76,64.005 42.405,63.36 43.2,63.36 C43.995,63.36 44.64,64.005 44.64,64.8 C44.64,65.595 43.995,66.24 43.2,66.24 C42.405,66.24 41.76,65.595 41.76,64.8 z" fill="#FFFFFF"/>
        <path d="M48.96,64.8 C48.96,64.005 49.605,63.36 50.4,63.36 C51.195,63.36 51.84,64.005 51.84,64.8 C51.84,65.595 51.195,66.24 50.4,66.24 C49.605,66.24 48.96,65.595 48.96,64.8 z" fill="#FFFFFF"/>
        <path d="M56.16,64.8 C56.16,64.005 56.805,63.36 57.6,63.36 C58.395,63.36 59.04,64.005 59.04,64.8 C59.04,65.595 58.395,66.24 57.6,66.24 C56.805,66.24 56.16,65.595 56.16,64.8 z" fill="#FFFFFF"/>
        <path d="M63.36,64.8 C63.36,64.005 64.005,63.36 64.8,63.36 C65.595,63.36 66.24,64.005 66.24,64.8 C66.24,65.595 65.595,66.24 64.8,66.24 C64.005,66.24 63.36,65.595 63.36,64.8 z" fill="#FFFFFF"/>
        <path d="M70.56,64.8 C70.56,64.005 71.205,63.36 72,63.36 C72.795,63.36 73.44,64.005 73.44,64.8 C73.44,65.595 72.795,66.24 72,66.24 C71.205,66.24 70.56,65.595 70.56,64.8 z" fill="#FFFFFF"/>
        <path d="M77.76,64.8 C77.76,64.005 78.405,63.36 79.2,63.36 C79.995,63.36 80.64,64.005 80.64,64.8 C80.64,65.595 79.995,66.24 79.2,66.24 C78.405,66.24 77.76,65.595 77.76,64.8 z" fill="#FFFFFF"/>
        <path d="M84.96,64.8 C84.96,64.005 85.605,63.36 86.4,63.36 C87.195,63.36 87.84,64.005 87.84,64.8 C87.84,65.595 87.195,66.24 86.4,66.24 C85.605,66.24 84.96,65.595 84.96,64.8 z" fill="#FFFFFF"/>
        <path d="M92.16,64.8 C92.16,64.005 92.805,63.36 93.6,63.36 C94.395,63.36 95.04,64.005 95.04,64.8 C95.04,65.595 94.395,66.24 93.6,66.24 C92.805,66.24 92.16,65.595 92.16,64.8 z" fill="#FFFFFF"/>
        <path d="M99.36,64.8 C99.36,64.005 100.005,63.36 100.8,63.36 C101.595,63.36 102.24,64.005 102.24,64.8 C102.24,65.595 101.595,66.24 100.8,66.24 C100.005,66.24 99.36,65.595 99.36,64.8 z" fill="#FFFFFF"/>
        <path d="M106.56,64.8 C106.56,64.005 107.205,63.36 108,63.36 C108.795,63.36 109.44,64.005 109.44,64.8 C109.44,65.595 108.795,66.24 108,66.24 C107.205,66.24 106.56,65.595 106.56,64.8 z" fill="#FFFFFF"/>
        <path d="M113.76,64.8 C113.76,64.005 114.405,63.36 115.2,63.36 C115.995,63.36 116.64,64.005 116.64,64.8 C116.64,65.595 115.995,66.24 115.2,66.24 C114.405,66.24 113.76,65.595 113.76,64.8 z" fill="#FFFFFF"/>
        <path d="M120.96,64.8 C120.96,64.005 121.605,63.36 122.4,63.36 C123.195,63.36 123.84,64.005 123.84,64.8 C123.84,65.595 123.195,66.24 122.4,66.24 C121.605,66.24 120.96,65.595 120.96,64.8 z" fill="#FFFFFF"/>
        <path d="M128.16,64.8 C128.16,64.005 128.805,63.36 129.6,63.36 C130.395,63.36 131.04,64.005 131.04,64.8 C131.04,65.595 130.395,66.24 129.6,66.24 C128.805,66.24 128.16,65.595 128.16,64.8 z" fill="#FFFFFF"/>
        <path d="M135.36,64.8 C135.36,64.005 136.005,63.36 136.8,63.36 C137.595,63.36 138.24,64.005 138.24,64.8 C138.24,65.595 137.595,66.24 136.8,66.24 C136.005,66.24 135.36,65.595 135.36,64.8 z" fill="#FFFFFF"/>
        <path d="M142.56,64.8 C142.56,64.005 143.205,63.36 144,63.36 C144.795,63.36 145.44,64.005 145.44,64.8 C145.44,65.595 144.795,66.24 144,66.24 C143.205,66.24 142.56,65.595 142.56,64.8 z" fill="#FFFFFF"/>
        <path d="M149.76,64.8 C149.76,64.005 150.405,63.36 151.2,63.36 C151.995,63.36 152.64,64.005 152.64,64.8 C152.64,65.595 151.995,66.24 151.2,66.24 C150.405,66.24 149.76,65.595 149.76,64.8 z" fill="#FFFFFF"/>
        <path d="M156.96,64.8 C156.96,64.005 157.605,63.36 158.4,63.36 C159.195,63.36 159.84,64.005 159.84,64.8 C159.84,65.595 159.195,66.24 158.4,66.24 C157.605,66.24 156.96,65.595 156.96,64.8 z" fill="#FFFFFF"/>
        <path d="M164.16,64.8 C164.16,64.005 164.805,63.36 165.6,63.36 C166.395,63.36 167.04,64.005 167.04,64.8 C167.04,65.595 166.395,66.24 165.6,66.24 C164.805,66.24 164.16,65.595 164.16,64.8 z" fill="#FFFFFF"/>
        <path d="M171.36,64.8 C171.36,64.005 172.005,63.36 172.8,63.36 C173.595,63.36 174.24,64.005 174.24,64.8 C174.24,65.595 173.595,66.24 172.8,66.24 C172.005,66.24 171.36,65.595 171.36,64.8 z" fill="#FFFFFF"/>
        <path d="M178.56,64.8 C178.56,64.005 179.205,63.36 180,63.36 C180.795,63.36 181.44,64.005 181.44,64.8 C181.44,65.595 180.795,66.24 180,66.24 C179.205,66.24 178.56,65.595 178.56,64.8 z" fill="#FFFFFF"/>
        <path d="M185.76,64.8 C185.76,64.005 186.405,63.36 187.2,63.36 C187.995,63.36 188.64,64.005 188.64,64.8 C188.64,65.595 187.995,66.24 187.2,66.24 C186.405,66.24 185.76,65.595 185.76,64.8 z" fill="#FFFFFF"/>
        <path d="M192.96,64.8 C192.96,64.005 193.605,63.36 194.4,63.36 C195.195,63.36 195.84,64.005 195.84,64.8 C195.84,65.595 195.195,66.24 194.4,66.24 C193.605,66.24 192.96,65.595 192.96,64.8 z" fill="#FFFFFF"/>
        <path d="M200.16,64.8 C200.16,64.005 200.805,63.36 201.6,63.36 C202.395,63.36 203.04,64.005 203.04,64.8 C203.04,65.595 202.395,66.24 201.6,66.24 C200.805,66.24 200.16,65.595 200.16,64.8 z" fill="#FFFFFF"/>
        <path d="M207.36,64.8 C207.36,64.005 208.005,63.36 208.8,63.36 C209.595,63.36 210.24,64.005 210.24,64.8 C210.24,65.595 209.595,66.24 208.8,66.24 C208.005,66.24 207.36,65.595 207.36,64.8 z" fill="#FFFFFF"/>
        <path d="M214.56,64.8 C214.56,64.005 215.205,63.36 216,63.36 C216.795,63.36 217.44,64.005 217.44,64.8 C217.44,65.595 216.795,66.24 216,66.24 C215.205,66.24 214.56,65.595 214.56,64.8 z" fill="#FFFFFF"/>
      </g>
      <g>
        <path d="M41.76,57.6 C41.76,56.805 42.405,56.16 43.2,56.16 C43.995,56.16 44.64,56.805 44.64,57.6 C44.64,58.395 43.995,59.04 43.2,59.04 C42.405,59.04 41.76,58.395 41.76,57.6 z" fill="#FFFFFF"/>
        <path d="M48.96,57.6 C48.96,56.805 49.605,56.16 50.4,56.16 C51.195,56.16 51.84,56.805 51.84,57.6 C51.84,58.395 51.195,59.04 50.4,59.04 C49.605,59.04 48.96,58.395 48.96,57.6 z" fill="#FFFFFF"/>
        <path d="M56.16,57.6 C56.16,56.805 56.805,56.16 57.6,56.16 C58.395,56.16 59.04,56.805 59.04,57.6 C59.04,58.395 58.395,59.04 57.6,59.04 C56.805,59.04 56.16,58.395 56.16,57.6 z" fill="#FFFFFF"/>
        <path d="M63.36,57.6 C63.36,56.805 64.005,56.16 64.8,56.16 C65.595,56.16 66.24,56.805 66.24,57.6 C66.24,58.395 65.595,59.04 64.8,59.04 C64.005,59.04 63.36,58.395 63.36,57.6 z" fill="#FFFFFF"/>
        <path d="M70.56,57.6 C70.56,56.805 71.205,56.16 72,56.16 C72.795,56.16 73.44,56.805 73.44,57.6 C73.44,58.395 72.795,59.04 72,59.04 C71.205,59.04 70.56,58.395 70.56,57.6 z" fill="#FFFFFF"/>
        <path d="M77.76,57.6 C77.76,56.805 78.405,56.16 79.2,56.16 C79.995,56.16 80.64,56.805 80.64,57.6 C80.64,58.395 79.995,59.04 79.2,59.04 C78.405,59.04 77.76,58.395 77.76,57.6 z" fill="#FFFFFF"/>
        <path d="M84.96,57.6 C84.96,56.805 85.605,56.16 86.4,56.16 C87.195,56.16 87.84,56.805 87.84,57.6 C87.84,58.395 87.195,59.04 86.4,59.04 C85.605,59.04 84.96,58.395 84.96,57.6 z" fill="#FFFFFF"/>
        <path d="M92.16,57.6 C92.16,56.805 92.805,56.16 93.6,56.16 C94.395,56.16 95.04,56.805 95.04,57.6 C95.04,58.395 94.395,59.04 93.6,59.04 C92.805,59.04 92.16,58.395 92.16,57.6 z" fill="#FFFFFF"/>
        <path d="M99.36,57.6 C99.36,56.805 100.005,56.16 100.8,56.16 C101.595,56.16 102.24,56.805 102.24,57.6 C102.24,58.395 101.595,59.04 100.8,59.04 C100.005,59.04 99.36,58.395 99.36,57.6 z" fill="#FFFFFF"/>
        <path d="M106.56,57.6 C106.56,56.805 107.205,56.16 108,56.16 C108.795,56.16 109.44,56.805 109.44,57.6 C109.44,58.395 108.795,59.04 108,59.04 C107.205,59.04 106.56,58.395 106.56,57.6 z" fill="#FFFFFF"/>
        <path d="M113.76,57.6 C113.76,56.805 114.405,56.16 115.2,56.16 C115.995,56.16 116.64,56.805 116.64,57.6 C116.64,58.395 115.995,59.04 115.2,59.04 C114.405,59.04 113.76,58.395 113.76,57.6 z" fill="#FFFFFF"/>
        <path d="M120.96,57.6 C120.96,56.805 121.605,56.16 122.4,56.16 C123.195,56.16 123.84,56.805 123.84,57.6 C123.84,58.395 123.195,59.04 122.4,59.04 C121.605,59.04 120.96,58.395 120.96,57.6 z" fill="#FFFFFF"/>
        <path d="M128.16,57.6 C128.16,56.805 128.805,56.16 129.6,56.16 C130.395,56.16 131.04,56.805 131.04,57.6 C131.04,58.395 130.395,59.04 129.6,59.04 C128.805,59.04 128.16,58.395 128.16,57.6 z" fill="#FFFFFF"/>
        <path d="M135.36,57.6 C135.36,56.805 136.005,56.16 136.8,56.16 C137.595,56.16 138.24,56.805 138.24,57.6 C138.24,58.395 137.595,59.04 136.8,59.04 C136.005,59.04 135.36,58.395 135.36,57.6 z" fill="#FFFFFF"/>
        <path d="M142.56,57.6 C142.56,56.805 143.205,56.16 144,56.16 C144.795,56.16 145.44,56.805 145.44,57.6 C145.44,58.395 144.795,59.04 144,59.04 C143.205,59.04 142.56,58.395 142.56,57.6 z" fill="#FFFFFF"/>
        <path d="M149.76,57.6 C149.76,56.805 150.405,56.16 151.2,56.16 C151.995,56.16 152.64,56.805 152.64,57.6 C152.64,58.395 151.995,59.04 151.2,59.04 C150.405,59.04 149.76,58.395 149.76,57.6 z" fill="#FFFFFF"/>
        <path d="M156.96,57.6 C156.96,56.805 157.605,56.16 158.4,56.16 C159.195,56.16 159.84,56.805 159.84,57.6 C159.84,58.395 159.195,59.04 158.4,59.04 C157.605,59.04 156.96,58.395 156.96,57.6 z" fill="#FFFFFF"/>
        <path d="M164.16,57.6 C164.16,56.805 164.805,56.16 165.6,56.16 C166.395,56.16 167.04,56.805 167.04,57.6 C167.04,58.395 166.395,59.04 165.6,59.04 C164.805,59.04 164.16,58.395 164.16,57.6 z" fill="#FFFFFF"/>
        <path d="M171.36,57.6 C171.36,56.805 172.005,56.16 172.8,56.16 C173.595,56.16 174.24,56.805 174.24,57.6 C174.24,58.395 173.595,59.04 172.8,59.04 C172.005,59.04 171.36,58.395 171.36,57.6 z" fill="#FFFFFF"/>
        <path d="M178.56,57.6 C178.56,56.805 179.205,56.16 180,56.16 C180.795,56.16 181.44,56.805 181.44,57.6 C181.44,58.395 180.795,59.04 180,59.04 C179.205,59.04 178.56,58.395 178.56,57.6 z" fill="#FFFFFF"/>
        <path d="M185.76,57.6 C185.76,56.805 186.405,56.16 187.2,56.16 C187.995,56.16 188.64,56.805 188.64,57.6 C188.64,58.395 187.995,59.04 187.2,59.04 C186.405,59.04 185.76,58.395 185.76,57.6 z" fill="#FFFFFF"/>
        <path d="M192.96,57.6 C192.96,56.805 193.605,56.16 194.4,56.16 C195.195,56.16 195.84,56.805 195.84,57.6 C195.84,58.395 195.195,59.04 194.4,59.04 C193.605,59.04 192.96,58.395 192.96,57.6 z" fill="#FFFFFF"/>
        <path d="M200.16,57.6 C200.16,56.805 200.805,56.16 201.6,56.16 C202.395,56.16 203.04,56.805 203.04,57.6 C203.04,58.395 202.395,59.04 201.6,59.04 C200.805,59.04 200.16,58.395 200.16,57.6 z" fill="#FFFFFF"/>
        <path d="M207.36,57.6 C207.36,56.805 208.005,56.16 208.8,56.16 C209.595,56.16 210.24,56.805 210.24,57.6 C210.24,58.395 209.595,59.04 208.8,59.04 C208.005,59.04 207.36,58.395 207.36,57.6 z" fill="#FFFFFF"/>
        <path d="M214.56,57.6 C214.56,56.805 215.205,56.16 216,56.16 C216.795,56.16 217.44,56.805 217.44,57.6 C217.44,58.395 216.795,59.04 216,59.04 C215.205,59.04 214.56,58.395 214.56,57.6 z" fill="#FFFFFF"/>
      </g>
      <g>
        <path d="M41.76,50.4 C41.76,49.605 42.405,48.96 43.2,48.96 C43.995,48.96 44.64,49.605 44.64,50.4 C44.64,51.195 43.995,51.84 43.2,51.84 C42.405,51.84 41.76,51.195 41.76,50.4 z" fill="#FFFFFF"/>
        <path d="M48.96,50.4 C48.96,49.605 49.605,48.96 50.4,48.96 C51.195,48.96 51.84,49.605 51.84,50.4 C51.84,51.195 51.195,51.84 50.4,51.84 C49.605,51.84 48.96,51.195 48.96,50.4 z" fill="#FFFFFF"/>
        <path d="M56.16,50.4 C56.16,49.605 56.805,48.96 57.6,48.96 C58.395,48.96 59.04,49.605 59.04,50.4 C59.04,51.195 58.395,51.84 57.6,51.84 C56.805,51.84 56.16,51.195 56.16,50.4 z" fill="#FFFFFF"/>
        <path d="M63.36,50.4 C63.36,49.605 64.005,48.96 64.8,48.96 C65.595,48.96 66.24,49.605 66.24,50.4 C66.24,51.195 65.595,51.84 64.8,51.84 C64.005,51.84 63.36,51.195 63.36,50.4 z" fill="#FFFFFF"/>
        <path d="M70.56,50.4 C70.56,49.605 71.205,48.96 72,48.96 C72.795,48.96 73.44,49.605 73.44,50.4 C73.44,51.195 72.795,51.84 72,51.84 C71.205,51.84 70.56,51.195 70.56,50.4 z" fill="#FFFFFF"/>
        <path d="M77.76,50.4 C77.76,49.605 78.405,48.96 79.2,48.96 C79.995,48.96 80.64,49.605 80.64,50.4 C80.64,51.195 79.995,51.84 79.2,51.84 C78.405,51.84 77.76,51.195 77.76,50.4 z" fill="#FFFFFF"/>
        <path d="M84.96,50.4 C84.96,49.605 85.605,48.96 86.4,48.96 C87.195,48.96 87.84,49.605 87.84,50.4 C87.84,51.195 87.195,51.84 86.4,51.84 C85.605,51.84 84.96,51.195 84.96,50.4 z" fill="#FFFFFF"/>
        <path d="M92.16,50.4 C92.16,49.605 92.805,48.96 93.6,48.96 C94.395,48.96 95.04,49.605 95.04,50.4 C95.04,51.195 94.395,51.84 93.6,51.84 C92.805,51.84 92.16,51.195 92.16,50.4 z" fill="#FFFFFF"/>
        <path d="M99.36,50.4 C99.36,49.605 100.005,48.96 100.8,48.96 C101.595,48.96 102.24,49.605 102.24,50.4 C102.24,51.195 101.595,51.84 100.8,51.84 C100.005,51.84 99.36,51.195 99.36,50.4 z" fill="#FFFFFF"/>
        <path d="M106.56,50.4 C106.56,49.605 107.205,48.96 108,48.96 C108.795,48.96 109.44,49.605 109.44,50.4 C109.44,51.195 108.795,51.84 108,51.84 C107.205,51.84 106.56,51.195 106.56,50.4 z" fill="#FFFFFF"/>
        <path d="M113.76,50.4 C113.76,49.605 114.405,48.96 115.2,48.96 C115.995,48.96 116.64,49.605 116.64,50.4 C116.64,51.195 115.995,51.84 115.2,51.84 C114.405,51.84 113.76,51.195 113.76,50.4 z" fill="#FFFFFF"/>
        <path d="M120.96,50.4 C120.96,49.605 121.605,48.96 122.4,48.96 C123.195,48.96 123.84,49.605 123.84,50.4 C123.84,51.195 123.195,51.84 122.4,51.84 C121.605,51.84 120.96,51.195 120.96,50.4 z" fill="#FFFFFF"/>
        <path d="M128.16,50.4 C128.16,49.605 128.805,48.96 129.6,48.96 C130.395,48.96 131.04,49.605 131.04,50.4 C131.04,51.195 130.395,51.84 129.6,51.84 C128.805,51.84 128.16,51.195 128.16,50.4 z" fill="#FFFFFF"/>
        <path d="M135.36,50.4 C135.36,49.605 136.005,48.96 136.8,48.96 C137.595,48.96 138.24,49.605 138.24,50.4 C138.24,51.195 137.595,51.84 136.8,51.84 C136.005,51.84 135.36,51.195 135.36,50.4 z" fill="#FFFFFF"/>
        <path d="M142.56,50.4 C142.56,49.605 143.205,48.96 144,48.96 C144.795,48.96 145.44,49.605 145.44,50.4 C145.44,51.195 144.795,51.84 144,51.84 C143.205,51.84 142.56,51.195 142.56,50.4 z" fill="#FFFFFF"/>
        <path d="M149.76,50.4 C149.76,49.605 150.405,48.96 151.2,48.96 C151.995,48.96 152.64,49.605 152.64,50.4 C152.64,51.195 151.995,51.84 151.2,51.84 C150.405,51.84 149.76,51.195 149.76,50.4 z" fill="#FFFFFF"/>
        <path d="M156.96,50.4 C156.96,49.605 157.605,48.96 158.4,48.96 C159.195,48.96 159.84,49.605 159.84,50.4 C159.84,51.195 159.195,51.84 158.4,51.84 C157.605,51.84 156.96,51.195 156.96,50.4 z" fill="#FFFFFF"/>
        <path d="M164.16,50.4 C164.16,49.605 164.805,48.96 165.6,48.96 C166.395,48.96 167.04,49.605 167.04,50.4 C167.04,51.195 166.395,51.84 165.6,51.84 C164.805,51.84 164.16,51.195 164.16,50.4 z" fill="#FFFFFF"/>
        <path d="M171.36,50.4 C171.36,49.605 172.005,48.96 172.8,48.96 C173.595,48.96 174.24,49.605 174.24,50.4 C174.24,51.195 173.595,51.84 172.8,51.84 C172.005,51.84 171.36,51.195 171.36,50.4 z" fill="#FFFFFF"/>
        <path d="M178.56,50.4 C178.56,49.605 179.205,48.96 180,48.96 C180.795,48.96 181.44,49.605 181.44,50.4 C181.44,51.195 180.795,51.84 180,51.84 C179.205,51.84 178.56,51.195 178.56,50.4 z" fill="#FFFFFF"/>
        <path d="M185.76,50.4 C185.76,49.605 186.405,48.96 187.2,48.96 C187.995,48.96 188.64,49.605 188.64,50.4 C188.64,51.195 187.995,51.84 187.2,51.84 C186.405,51.84 185.76,51.195 185.76,50.4 z" fill="#FFFFFF"/>
        <path d="M192.96,50.4 C192.96,49.605 193.605,48.96 194.4,48.96 C195.195,48.96 195.84,49.605 195.84,50.4 C195.84,51.195 195.195,51.84 194.4,51.84 C193.605,51.84 192.96,51.195 192.96,50.4 z" fill="#FFFFFF"/>
        <path d="M200.16,50.4 C200.16,49.605 200.805,48.96 201.6,48.96 C202.395,48.96 203.04,49.605 203.04,50.4 C203.04,51.195 202.395,51.84 201.6,51.84 C200.805,51.84 200.16,51.195 200.16,50.4 z" fill="#FFFFFF"/>
        <path d="M207.36,50.4 C207.36,49.605 208.005,48.96 208.8,48.96 C209.595,48.96 210.24,49.605 210.24,50.4 C210.24,51.195 209.595,51.84 208.8,51.84 C208.005,51.84 207.36,51.195 207.36,50.4 z" fill="#FFFFFF"/>
        <path d="M214.56,50.4 C214.56,49.605 215.205,48.96 216,48.96 C216.795,48.96 217.44,49.605 217.44,50.4 C217.44,51.195 216.795,51.84 216,51.84 C215.205,51.84 214.56,51.195 214.56,50.4 z" fill="#FFFFFF"/>
      </g>
      <g>
        <path d="M41.76,108 C41.76,107.205 42.405,106.56 43.2,106.56 C43.995,106.56 44.64,107.205 44.64,108 C44.64,108.795 43.995,109.44 43.2,109.44 C42.405,109.44 41.76,108.795 41.76,108 z" fill="#FFFFFF"/>
        <path d="M48.96,108 C48.96,107.205 49.605,106.56 50.4,106.56 C51.195,106.56 51.84,107.205 51.84,108 C51.84,108.795 51.195,109.44 50.4,109.44 C49.605,109.44 48.96,108.795 48.96,108 z" fill="#FFFFFF"/>
        <path d="M56.16,108 C56.16,107.205 56.805,106.56 57.6,106.56 C58.395,106.56 59.04,107.205 59.04,108 C59.04,108.795 58.395,109.44 57.6,109.44 C56.805,109.44 56.16,108.795 56.16,108 z" fill="#FFFFFF"/>
        <path d="M63.36,108 C63.36,107.205 64.005,106.56 64.8,106.56 C65.595,106.56 66.24,107.205 66.24,108 C66.24,108.795 65.595,109.44 64.8,109.44 C64.005,109.44 63.36,108.795 63.36,108 z" fill="#FFFFFF"/>
        <path d="M70.56,108 C70.56,107.205 71.205,106.56 72,106.56 C72.795,106.56 73.44,107.205 73.44,108 C73.44,108.795 72.795,109.44 72,109.44 C71.205,109.44 70.56,108.795 70.56,108 z" fill="#FFFFFF"/>
        <path d="M77.76,108 C77.76,107.205 78.405,106.56 79.2,106.56 C79.995,106.56 80.64,107.205 80.64,108 C80.64,108.795 79.995,109.44 79.2,109.44 C78.405,109.44 77.76,108.795 77.76,108 z" fill="#FFFFFF"/>
        <path d="M84.96,108 C84.96,107.205 85.605,106.56 86.4,106.56 C87.195,106.56 87.84,107.205 87.84,108 C87.84,108.795 87.195,109.44 86.4,109.44 C85.605,109.44 84.96,108.795 84.96,108 z" fill="#FFFFFF"/>
        <path d="M92.16,108 C92.16,107.205 92.805,106.56 93.6,106.56 C94.395,106.56 95.04,107.205 95.04,108 C95.04,108.795 94.395,109.44 93.6,109.44 C92.805,109.44 92.16,108.795 92.16,108 z" fill="#FFFFFF"/>
        <path d="M99.36,108 C99.36,107.205 100.005,106.56 100.8,106.56 C101.595,106.56 102.24,107.205 102.24,108 C102.24,108.795 101.595,109.44 100.8,109.44 C100.005,109.44 99.36,108.795 99.36,108 z" fill="#FFFFFF"/>
        <path d="M106.56,108 C106.56,107.205 107.205,106.56 108,106.56 C108.795,106.56 109.44,107.205 109.44,108 C109.44,108.795 108.795,109.44 108,109.44 C107.205,109.44 106.56,108.795 106.56,108 z" fill="#FFFFFF"/>
        <path d="M113.76,108 C113.76,107.205 114.405,106.56 115.2,106.56 C115.995,106.56 116.64,107.205 116.64,108 C116.64,108.795 115.995,109.44 115.2,109.44 C114.405,109.44 113.76,108.795 113.76,108 z" fill="#FFFFFF"/>
        <path d="M120.96,108 C120.96,107.205 121.605,106.56 122.4,106.56 C123.195,106.56 123.84,107.205 123.84,108 C123.84,108.795 123.195,109.44 122.4,109.44 C121.605,109.44 120.96,108.795 120.96,108 z" fill="#FFFFFF"/>
        <path d="M128.16,108 C128.16,107.205 128.805,106.56 129.6,106.56 C130.395,106.56 131.04,107.205 131.04,108 C131.04,108.795 130.395,109.44 129.6,109.44 C128.805,109.44 128.16,108.795 128.16,108 z" fill="#FFFFFF"/>
        <path d="M135.36,108 C135.36,107.205 136.005,106.56 136.8,106.56 C137.595,106.56 138.24,107.205 138.24,108 C138.24,108.795 137.595,109.44 136.8,109.44 C136.005,109.44 135.36,108.795 135.36,108 z" fill="#FFFFFF"/>
        <path d="M142.56,108 C142.56,107.205 143.205,106.56 144,106.56 C144.795,106.56 145.44,107.205 145.44,108 C145.44,108.795 144.795,109.44 144,109.44 C143.205,109.44 142.56,108.795 142.56,108 z" fill="#FFFFFF"/>
        <path d="M149.76,108 C149.76,107.205 150.405,106.56 151.2,106.56 C151.995,106.56 152.64,107.205 152.64,108 C152.64,108.795 151.995,109.44 151.2,109.44 C150.405,109.44 149.76,108.795 149.76,108 z" fill="#FFFFFF"/>
        <path d="M156.96,108 C156.96,107.205 157.605,106.56 158.4,106.56 C159.195,106.56 159.84,107.205 159.84,108 C159.84,108.795 159.195,109.44 158.4,109.44 C157.605,109.44 156.96,108.795 156.96,108 z" fill="#FFFFFF"/>
        <path d="M164.16,108 C164.16,107.205 164.805,106.56 165.6,106.56 C166.395,106.56 167.04,107.205 167.04,108 C167.04,108.795 166.395,109.44 165.6,109.44 C164.805,109.44 164.16,108.795 164.16,108 z" fill="#FFFFFF"/>
        <path d="M171.36,108 C171.36,107.205 172.005,106.56 172.8,106.56 C173.595,106.56 174.24,107.205 174.24,108 C174.24,108.795 173.595,109.44 172.8,109.44 C172.005,109.44 171.36,108.795 171.36,108 z" fill="#FFFFFF"/>
        <path d="M178.56,108 C178.56,107.205 179.205,106.56 180,106.56 C180.795,106.56 181.44,107.205 181.44,108 C181.44,108.795 180.795,109.44 180,109.44 C179.205,109.44 178.56,108.795 178.56,108 z" fill="#FFFFFF"/>
        <path d="M185.76,108 C185.76,107.205 186.405,106.56 187.2,106.56 C187.995,106.56 188.64,107.205 188.64,108 C188.64,108.795 187.995,109.44 187.2,109.44 C186.405,109.44 185.76,108.795 185.76,108 z" fill="#FFFFFF"/>
        <path d="M192.96,108 C192.96,107.205 193.605,106.56 194.4,106.56 C195.195,106.56 195.84,107.205 195.84,108 C195.84,108.795 195.195,109.44 194.4,109.44 C193.605,109.44 192.96,108.795 192.96,108 z" fill="#FFFFFF"/>
        <path d="M200.16,108 C200.16,107.205 200.805,106.56 201.6,106.56 C202.395,106.56 203.04,107.205 203.04,108 C203.04,108.795 202.395,109.44 201.6,109.44 C200.805,109.44 200.16,108.795 200.16,108 z" fill="#FFFFFF"/>
        <path d="M207.36,108 C207.36,107.205 208.005,106.56 208.8,106.56 C209.595,106.56 210.24,107.205 210.24,108 C210.24,108.795 209.595,109.44 208.8,109.44 C208.005,109.44 207.36,108.795 207.36,108 z" fill="#FFFFFF"/>
        <path d="M214.56,108 C214.56,107.205 215.205,106.56 216,106.56 C216.795,106.56 217.44,107.205 217.44,108 C217.44,108.795 216.795,109.44 216,109.44 C215.205,109.44 214.56,108.795 214.56,108 z" fill="#FFFFFF"/>
      </g>
    </g>
  </g>
  <g id="Layer_3">
    <g>
      <g>
        <path d="M135.36,90.72 L138.24,90.72 L138.24,96.48 L135.36,96.48 L135.36,90.72 z" fill="#FFFFFF"/>
        <path d="M135.36,90.72 L138.24,90.72 L138.24,96.48 L135.36,96.48 L135.36,90.72 z" fill-opacity="0" stroke="#FFFFFF" stroke-width="0.5" stroke-linejoin="round"/>
      </g>
      <g>
        <path d="M135.782,92.582 L137.818,94.618" fill-opacity="0" stroke="#AAAAAA" stroke-width="0.5" stroke-linejoin="round"/>
        <path d="M137.818,92.582 L135.782,94.618" fill-opacity="0" stroke="#AAAAAA" stroke-width="0.5" stroke-linejoin="round"/>
      </g>
    </g>
    <g>
      <g>
        <path d="M113.76,90.72 L116.64,90.72 L116.64,96.48 L113.76,96.48 L113.76,90.72 z" fill="#FFFFFF"/>
        <path d="M113.76,90.72 L116.64,90.72 L116.64,96.48 L113.76,96.48 L113.76,90.72 z" fill-opacity="0" stroke="#FFFFFF" stroke-width="0.5" stroke-linejoin="round"/>
      </g>
      <g>
        <path d="M114.182,92.582 L116.218,94.618" fill-opacity="0" stroke="#AAAAAA" stroke-width="0.5" stroke-linejoin="round"/>
        <path d="M116.218,92.582 L114.182,94.618" fill-opacity="0" stroke="#AAAAAA" stroke-width="0.5" stroke-linejoin="round"/>
      </g>
    </g>
    <g>
      <g>
        <path d="M92.16,90.72 L95.04,90.72 L95.04,96.48 L92.16,96.48 L92.16,90.72 z" fill="#FFFFFF"/>
        <path d="M92.16,90.72 L95.04,90.72 L95.04,96.48 L92.16,96.48 L92.16,90.72 z" fill-opacity="0" stroke="#FFFFFF" stroke-width="0.5" stroke-linejoin="round"/>
      </g>
      <g>
        <path d="M92.582,92.582 L94.618,94.618" fill-opacity="0" stroke="#AAAAAA" stroke-width="0.5" stroke-linejoin="round"/>
        <path d="M94.618,92.582 L92.582,94.618" fill-opacity="0" stroke="#AAAAAA" stroke-width="0.5" stroke-linejoin="round"/>
      </g>
    </g>
    <g>
      <g>
        <path d="M70.56,90.72 L73.44,90.72 L73.44,96.48 L70.56,96.48 L70.56,90.72 z" fill="#FFFFFF"/>
        <path d="M70.56,90.72 L73.44,90.72 L73.44,96.48 L70.56,96.48 L70.56,90.72 z" fill-opacity="0" stroke="#FFFFFF" stroke-width="0.5" stroke-linejoin="round"/>
      </g>
      <g>
        <path d="M70.982,92.582 L73.018,94.618" fill-opacity="0" stroke="#AAAAAA" stroke-width="0.5" stroke-linejoin="round"/>
        <path d="M73.018,92.582 L70.982,94.618" fill-opacity="0" stroke="#AAAAAA" stroke-width="0.5" stroke-linejoin="round"/>
      </g>
    </g>
    <g>
      <g>
        <path d="M156.96,90.72 L159.84,90.72 L159.84,96.48 L156.96,96.48 L156.96,90.72 z" fill="#FFFFFF"/>
        <path d="M156.96,90.72 L159.84,90.72 L159.84,96.48 L156.96,96.48 L156.96,90.72 z" fill-opacity="0" stroke="#FFFFFF" stroke-width="0.5" stroke-linejoin="round"/>
      </g>
      <g>
        <path d="M157.382,92.582 L159.418,94.618" fill-opacity="0" stroke="#AAAAAA" stroke-width="0.5" stroke-linejoin="round"/>
        <path d="M159.418,92.582 L157.382,94.618" fill-opacity="0" stroke="#AAAAAA" stroke-width="0.5" stroke-linejoin="round"/>
      </g>
    </g>
    <g>
      <g>
        <path d="M185.76,105.12 L188.64,105.12 L188.64,110.88 L185.76,110.88 L185.76,105.12 z" fill="#FFFFFF"/>
        <path d="M185.76,105.12 L188.64,105.12 L188.64,110.88 L185.76,110.88 L185.76,105.12 z" fill-opacity="0" stroke="#FFFFFF" stroke-width="0.5" stroke-linejoin="round"/>
      </g>
      <g>
        <path d="M186.182,106.982 L188.218,109.018" fill-opacity="0" stroke="#AAAAAA" stroke-width="0.5" stroke-linejoin="round"/>
        <path d="M188.218,106.982 L186.182,109.018" fill-opacity="0" stroke="#AAAAAA" stroke-width="0.5" stroke-linejoin="round"/>
      </g>
    </g>
    <g>
      <g>
        <path d="M185.76,97.92 L188.64,97.92 L188.64,103.68 L185.76,103.68 L185.76,97.92 z" fill="#FFFFFF"/>
        <path d="M185.76,97.92 L188.64,97.92 L188.64,103.68 L185.76,103.68 L185.76,97.92 z" fill-opacity="0" stroke="#FFFFFF" stroke-width="0.5" stroke-linejoin="round"/>
      </g>
      <g>
        <path d="M186.182,99.782 L188.218,101.818" fill-opacity="0" stroke="#AAAAAA" stroke-width="0.5" stroke-linejoin="round"/>
        <path d="M188.218,99.782 L186.182,101.818" fill-opacity="0" stroke="#AAAAAA" stroke-width="0.5" stroke-linejoin="round"/>
      </g>
    </g>
    <g>
      <g>
        <path d="M185.76,90.72 L188.64,90.72 L188.64,96.48 L185.76,96.48 L185.76,90.72 z" fill="#FFFFFF"/>
        <path d="M185.76,90.72 L188.64,90.72 L188.64,96.48 L185.76,96.48 L185.76,90.72 z" fill-opacity="0" stroke="#FFFFFF" stroke-width="0.5" stroke-linejoin="round"/>
      </g>
      <g>
        <path d="M186.182,92.582 L188.218,94.618" fill-opacity="0" stroke="#AAAAAA" stroke-width="0.5" stroke-linejoin="round"/>
        <path d="M188.218,92.582 L186.182,94.618" fill-opacity="0" stroke="#AAAAAA" stroke-width="0.5" stroke-linejoin="round"/>
      </g>
    </g>
    <g>
      <g>
        <path d="M185.76,83.52 L188.64,83.52 L188.64,89.28 L185.76,89.28 L185.76,83.52 z" fill="#FFFFFF"/>
        <path d="M185.76,83.52 L188.64,83.52 L188.64,89.28 L185.76,89.28 L185.76,83.52 z" fill-opacity="0" stroke="#FFFFFF" stroke-width="0.5" stroke-linejoin="round"/>
      </g>
      <g>
        <g>
          <path d="M186.182,85.382 L188.218,87.418" fill="#FFFFFF"/>
          <path d="M186.182,85.382 L188.218,87.418" fill-opacity="0" stroke="#AAAAAA" stroke-width="0.5" stroke-linejoin="round"/>
        </g>
        <g>
          <path d="M188.218,85.382 L186.182,87.418" fill="#FFFFFF"/>
          <path d="M188.218,85.382 L186.182,87.418" fill-opacity="0" stroke="#AAAAAA" stroke-width="0.5" stroke-linejoin="round"/>
        </g>
      </g>
    </g>
  </g>
  <g id="Layer_4">
    <path d="M165.6,86.4 L165.6,93.6" fill-opacity="0" stroke="#5E3F30" stroke-width="1.5" stroke-linecap="round"/>
    <path d="M144,93.6 L144,79.2" fill-opacity="0" stroke="#5E3F30" stroke-width="1.5" stroke-linecap="round"/>
    <path d="M122.4,93.6 L122.4,72" fill-opacity="0" stroke="#5E3F30" stroke-width="1.5" stroke-linecap="round"/>
    <path d="M100.8,93.6 L100.8,64.8" fill-opacity="0" stroke="#5E3F30" stroke-width="1.5" stroke-linecap="round"/>
    <path d="M79.2,57.6 L79.2,93.6" fill-opacity="0" stroke="#5E3F30" stroke-width="1.5" stroke-linecap="round"/>
    <path d="M57.6,50.4 L57.6,93.6" fill-opacity="0" stroke="#5E3F30" stroke-width="1.5" stroke-linecap="round"/>
  </g>
  <g id="Layer_5">
    <path d="M214.565,50.371 C214.565,49.576 215.21,48.931 216.005,48.931 C216.8,48.931 217.445,49.576 217.445,50.371 C217.445,51.167 216.8,51.811 216.005,51.811 C215.21,51.811 214.565,51.167 214.565,50.371 z" fill-opacity="0" stroke="#000000" stroke-width="0.5" stroke-linecap="square"/>
    <path d="M214.572,57.579 C214.572,56.784 215.217,56.139 216.012,56.139 C216.808,56.139 217.452,56.784 217.452,57.579 C217.452,58.374 216.808,59.019 216.012,59.019 C215.217,59.019 214.572,58.374 214.572,57.579 z" fill-opacity="0" stroke="#000000" stroke-width="0.5" stroke-linecap="square"/>
    <path d="M214.572,64.779 C214.572,63.984 215.217,63.339 216.012,63.339 C216.808,63.339 217.452,63.984 217.452,64.779 C217.452,65.574 216.808,66.219 216.012,66.219 C215.217,66.219 214.572,65.574 214.572,64.779 z" fill-opacity="0" stroke="#000000" stroke-width="0.5" stroke-linecap="square"/>
    <path d="M214.58,71.986 C214.58,71.191 215.225,70.546 216.02,70.546 C216.815,70.546 217.46,71.191 217.46,71.986 C217.46,72.781 216.815,73.426 216.02,73.426 C215.225,73.426 214.58,72.781 214.58,71.986 z" fill-opacity="0" stroke="#000000" stroke-width="0.5" stroke-linecap="square"/>
    <path d="M214.572,79.179 C214.572,78.383 215.217,77.739 216.012,77.739 C216.808,77.739 217.452,78.383 217.452,79.179 C217.452,79.974 216.808,80.619 216.012,80.619 C215.217,80.619 214.572,79.974 214.572,79.179 z" fill-opacity="0" stroke="#000000" stroke-width="0.5" stroke-linecap="square"/>
    <path d="M126.72,83.52 L132.48,83.52 L132.48,110.88 L126.72,110.88 L126.72,83.52 z" fill-opacity="0" stroke="#000000" stroke-width="0.5" stroke-linecap="square"/>
    <path d="M128.165,86.371 C128.165,85.576 128.81,84.931 129.605,84.931 C130.4,84.931 131.045,85.576 131.045,86.371 C131.045,87.166 130.4,87.811 129.605,87.811 C128.81,87.811 128.165,87.166 128.165,86.371 z" fill-opacity="0" stroke="#00E700" stroke-width="0.5" stroke-linecap="round" stroke-linejoin="round"/>
    <path d="M128.172,93.579 C128.172,92.783 128.817,92.139 129.612,92.139 C130.408,92.139 131.052,92.783 131.052,93.579 C131.052,94.374 130.408,95.019 129.612,95.019 C128.817,95.019 128.172,94.374 128.172,93.579 z" fill-opacity="0" stroke="#000000" stroke-width="0.5" stroke-linecap="square"/>
    <path d="M128.172,100.779 C128.172,99.984 128.817,99.339 129.612,99.339 C130.408,99.339 131.052,99.984 131.052,100.779 C131.052,101.574 130.408,102.219 129.612,102.219 C128.817,102.219 128.172,101.574 128.172,100.779 z" fill-opacity="0" stroke="#1000A3" stroke-width="0.5" stroke-linecap="round" stroke-linejoin="round"/>
    <path d="M128.18,107.986 C128.18,107.191 128.825,106.546 129.62,106.546 C130.415,106.546 131.06,107.191 131.06,107.986 C131.06,108.782 130.415,109.426 129.62,109.426 C128.825,109.426 128.18,108.782 128.18,107.986 z" fill-opacity="0" stroke="#E60000" stroke-width="0.5" stroke-linecap="round"/>
    <path d="M83.52,83.52 L89.28,83.52 L89.28,110.88 L83.52,110.88 L83.52,83.52 z" fill-opacity="0" stroke="#000000" stroke-width="0.5" stroke-linecap="square"/>
    <path d="M84.965,86.371 C84.965,85.576 85.61,84.931 86.405,84.931 C87.2,84.931 87.845,85.576 87.845,86.371 C87.845,87.166 87.2,87.811 86.405,87.811 C85.61,87.811 84.965,87.166 84.965,86.371 z" fill-opacity="0" stroke="#00E700" stroke-width="0.5" stroke-linecap="round" stroke-linejoin="round"/>
    <path d="M84.972,93.579 C84.972,92.783 85.617,92.139 86.412,92.139 C87.208,92.139 87.853,92.783 87.853,93.579 C87.853,94.374 87.208,95.019 86.412,95.019 C85.617,95.019 84.972,94.374 84.972,93.579 z" fill-opacity="0" stroke="#000000" stroke-width="0.5" stroke-linecap="square"/>
    <path d="M84.972,100.779 C84.972,99.984 85.617,99.339 86.412,99.339 C87.208,99.339 87.853,99.984 87.853,100.779 C87.853,101.574 87.208,102.219 86.412,102.219 C85.617,102.219 84.972,101.574 84.972,100.779 z" fill-opacity="0" stroke="#1000A3" stroke-width="0.5" stroke-linecap="round" stroke-linejoin="round"/>
    <path d="M84.98,107.986 C84.98,107.191 85.625,106.546 86.42,106.546 C87.215,106.546 87.86,107.191 87.86,107.986 C87.86,108.782 87.215,109.426 86.42,109.426 C85.625,109.426 84.98,108.782 84.98,107.986 z" fill-opacity="0" stroke="#E60000" stroke-width="0.5" stroke-linecap="round"/>
    <path d="M105.12,83.52 L110.88,83.52 L110.88,110.88 L105.12,110.88 L105.12,83.52 z" fill-opacity="0" stroke="#000000" stroke-width="0.5" stroke-linecap="square"/>
    <path d="M106.565,86.371 C106.565,85.576 107.21,84.931 108.005,84.931 C108.8,84.931 109.445,85.576 109.445,86.371 C109.445,87.166 108.8,87.811 108.005,87.811 C107.21,87.811 106.565,87.166 106.565,86.371 z" fill-opacity="0" stroke="#00E700" stroke-width="0.5" stroke-linecap="round" stroke-linejoin="round"/>
    <path d="M106.573,93.579 C106.573,92.783 107.217,92.139 108.013,92.139 C108.808,92.139 109.453,92.783 109.453,93.579 C109.453,94.374 108.808,95.019 108.013,95.019 C107.217,95.019 106.573,94.374 106.573,93.579 z" fill-opacity="0" stroke="#000000" stroke-width="0.5" stroke-linecap="square"/>
    <path d="M106.573,100.779 C106.573,99.984 107.217,99.339 108.013,99.339 C108.808,99.339 109.453,99.984 109.453,100.779 C109.453,101.574 108.808,102.219 108.013,102.219 C107.217,102.219 106.573,101.574 106.573,100.779 z" fill-opacity="0" stroke="#1000A3" stroke-width="0.5" stroke-linecap="round" stroke-linejoin="round"/>
    <path d="M106.58,107.986 C106.58,107.191 107.225,106.546 108.02,106.546 C108.815,106.546 109.46,107.191 109.46,107.986 C109.46,108.782 108.815,109.426 108.02,109.426 C107.225,109.426 106.58,108.782 106.58,107.986 z" fill-opacity="0" stroke="#E60000" stroke-width="0.5" stroke-linecap="round"/>
    <path d="M61.92,83.52 L67.68,83.52 L67.68,110.88 L61.92,110.88 L61.92,83.52 z" fill-opacity="0" stroke="#000000" stroke-width="0.5" stroke-linecap="square"/>
    <path d="M63.365,86.371 C63.365,85.576 64.01,84.931 64.805,84.931 C65.6,84.931 66.245,85.576 66.245,86.371 C66.245,87.166 65.6,87.811 64.805,87.811 C64.01,87.811 63.365,87.166 63.365,86.371 z" fill-opacity="0" stroke="#00E700" stroke-width="0.5" stroke-linecap="round" stroke-linejoin="round"/>
    <path d="M63.372,93.579 C63.372,92.783 64.017,92.139 64.812,92.139 C65.608,92.139 66.253,92.783 66.253,93.579 C66.253,94.374 65.608,95.019 64.812,95.019 C64.017,95.019 63.372,94.374 63.372,93.579 z" fill-opacity="0" stroke="#000000" stroke-width="0.5" stroke-linecap="square"/>
    <path d="M63.372,100.779 C63.372,99.984 64.017,99.339 64.812,99.339 C65.608,99.339 66.253,99.984 66.253,100.779 C66.253,101.574 65.608,102.219 64.812,102.219 C64.017,102.219 63.372,101.574 63.372,100.779 z" fill-opacity="0" stroke="#1000A3" stroke-width="0.5" stroke-linecap="round" stroke-linejoin="round"/>
    <path d="M63.38,107.986 C63.38,107.191 64.025,106.546 64.82,106.546 C65.615,106.546 66.26,107.191 66.26,107.986 C66.26,108.782 65.615,109.426 64.82,109.426 C64.025,109.426 63.38,108.782 63.38,107.986 z" fill-opacity="0" stroke="#E60000" stroke-width="0.5" stroke-linecap="round"/>
    <path d="M149.76,100.792 C149.76,99.997 150.405,99.352 151.2,99.352 C151.995,99.352 152.64,99.997 152.64,100.792 C152.64,101.588 151.995,102.232 151.2,102.232 C150.405,102.232 149.76,101.588 149.76,100.792 z" fill-opacity="0" stroke="#1000A3" stroke-width="0.5" stroke-linecap="round" stroke-linejoin="round"/>
    <path d="M149.767,108 C149.767,107.205 150.412,106.56 151.207,106.56 C152.003,106.56 152.647,107.205 152.647,108 C152.647,108.795 152.003,109.44 151.207,109.44 C150.412,109.44 149.767,108.795 149.767,108 z" fill-opacity="0" stroke="#E60000" stroke-width="0.5" stroke-linecap="round"/>
    <path d="M149.767,108 C149.767,107.205 150.412,106.56 151.207,106.56 C152.003,106.56 152.647,107.205 152.647,108 C152.647,108.795 152.003,109.44 151.207,109.44 C150.412,109.44 149.767,108.795 149.767,108 z" fill-opacity="0" stroke="#E60000" stroke-width="0.5" stroke-linecap="round"/>
    <path d="M148.32,83.52 L154.08,83.52 L154.08,110.88 L148.32,110.88 L148.32,83.52 z" fill-opacity="0" stroke="#000000" stroke-width="0.5" stroke-linecap="square"/>
    <path d="M149.765,86.371 C149.765,85.576 150.41,84.931 151.205,84.931 C152,84.931 152.645,85.576 152.645,86.371 C152.645,87.166 152,87.811 151.205,87.811 C150.41,87.811 149.765,87.166 149.765,86.371 z" fill-opacity="0" stroke="#00E700" stroke-width="0.5" stroke-linecap="round" stroke-linejoin="round"/>
    <path d="M149.772,93.579 C149.772,92.783 150.417,92.139 151.212,92.139 C152.008,92.139 152.652,92.783 152.652,93.579 C152.652,94.374 152.008,95.019 151.212,95.019 C150.417,95.019 149.772,94.374 149.772,93.579 z" fill-opacity="0" stroke="#000000" stroke-width="0.5" stroke-linecap="square"/>
    <path d="M213.12,47.52 L218.88,47.52 L218.88,82.08 L213.12,82.08 L213.12,47.52 z" fill-opacity="0" stroke="#000000" stroke-width="0.5" stroke-linecap="square"/>
    <g>
      <path d="M214.58,93.579 C214.58,92.783 215.225,92.139 216.02,92.139 C216.815,92.139 217.46,92.783 217.46,93.579 C217.46,94.374 216.815,95.019 216.02,95.019 C215.225,95.019 214.58,94.374 214.58,93.579 z" fill-opacity="0" stroke="#000000" stroke-width="0.5" stroke-linecap="square"/>
      <path d="M214.572,100.771 C214.572,99.976 215.217,99.331 216.012,99.331 C216.808,99.331 217.452,99.976 217.452,100.771 C217.452,101.567 216.808,102.211 216.012,102.211 C215.217,102.211 214.572,101.567 214.572,100.771 z" fill-opacity="0" stroke="#000000" stroke-width="0.5" stroke-linecap="square"/>
      <path d="M214.58,107.979 C214.58,107.183 215.225,106.539 216.02,106.539 C216.815,106.539 217.46,107.183 217.46,107.979 C217.46,108.774 216.815,109.419 216.02,109.419 C215.225,109.419 214.58,108.774 214.58,107.979 z" fill-opacity="0" stroke="#000000" stroke-width="0.5" stroke-linecap="square"/>
      <path d="M213.12,90.72 L218.88,90.72 L218.88,110.88 L213.12,110.88 L213.12,90.72 z" fill-opacity="0" stroke="#000000" stroke-width="0.5" stroke-linecap="square"/>
    </g>
  </g>
  <g id="Layer_6" display="none">
    <g>
      <path d="M214.56,115.185 C214.56,114.39 215.205,113.745 216,113.745 C216.795,113.745 217.44,114.39 217.44,115.185 C217.44,115.98 216.795,116.625 216,116.625 C215.205,116.625 214.56,115.98 214.56,115.185 z" fill="#FFFFFF"/>
      <path d="M214.56,115.185 C214.56,114.39 215.205,113.745 216,113.745 C216.795,113.745 217.44,114.39 217.44,115.185 C217.44,115.98 216.795,116.625 216,116.625 C215.205,116.625 214.56,115.98 214.56,115.185 z" fill-opacity="0" stroke="#000000" stroke-width="0.5"/>
    </g>
    <g>
      <path d="M214.567,122.393 C214.567,121.597 215.212,120.953 216.007,120.953 C216.803,120.953 217.447,121.597 217.447,122.393 C217.447,123.188 216.803,123.833 216.007,123.833 C215.212,123.833 214.567,123.188 214.567,122.393 z" fill="#FFFFFF"/>
      <path d="M214.567,122.393 C214.567,121.597 215.212,120.953 216.007,120.953 C216.803,120.953 217.447,121.597 217.447,122.393 C217.447,123.188 216.803,123.833 216.007,123.833 C215.212,123.833 214.567,123.188 214.567,122.393 z" fill-opacity="0" stroke="#000000" stroke-width="0.5"/>
    </g>
    <g>
      <path d="M214.567,129.593 C214.567,128.797 215.212,128.153 216.007,128.153 C216.803,128.153 217.447,128.797 217.447,129.593 C217.447,130.388 216.803,131.033 216.007,131.033 C215.212,131.033 214.567,130.388 214.567,129.593 z" fill="#FFFFFF"/>
      <path d="M214.567,129.593 C214.567,128.797 215.212,128.153 216.007,128.153 C216.803,128.153 217.447,128.797 217.447,129.593 C217.447,130.388 216.803,131.033 216.007,131.033 C215.212,131.033 214.567,130.388 214.567,129.593 z" fill-opacity="0" stroke="#000000" stroke-width="0.5"/>
    </g>
    <g>
      <path d="M214.575,136.8 C214.575,136.005 215.22,135.36 216.015,135.36 C216.81,135.36 217.455,136.005 217.455,136.8 C217.455,137.595 216.81,138.24 216.015,138.24 C215.22,138.24 214.575,137.595 214.575,136.8 z" fill="#FFFFFF"/>
      <path d="M214.575,136.8 C214.575,136.005 215.22,135.36 216.015,135.36 C216.81,135.36 217.455,136.005 217.455,136.8 C217.455,137.595 216.81,138.24 216.015,138.24 C215.22,138.24 214.575,137.595 214.575,136.8 z" fill-opacity="0" stroke="#000000" stroke-width="0.5"/>
    </g>
    <g>
      <path d="M221.765,50.371 C221.765,49.576 222.41,48.931 223.205,48.931 C224,48.931 224.645,49.576 224.645,50.371 C224.645,51.167 224,51.811 223.205,51.811 C222.41,51.811 221.765,51.167 221.765,50.371 z" fill="#FFFFFF"/>
      <path d="M221.765,50.371 C221.765,49.576 222.41,48.931 223.205,48.931 C224,48.931 224.645,49.576 224.645,50.371 C224.645,51.167 224,51.811 223.205,51.811 C222.41,51.811 221.765,51.167 221.765,50.371 z" fill-opacity="0" stroke="#000000" stroke-width="0.5"/>
    </g>
    <g>
      <path d="M221.772,57.579 C221.772,56.784 222.417,56.139 223.212,56.139 C224.008,56.139 224.652,56.784 224.652,57.579 C224.652,58.374 224.008,59.019 223.212,59.019 C222.417,59.019 221.772,58.374 221.772,57.579 z" fill="#FFFFFF"/>
      <path d="M221.772,57.579 C221.772,56.784 222.417,56.139 223.212,56.139 C224.008,56.139 224.652,56.784 224.652,57.579 C224.652,58.374 224.008,59.019 223.212,59.019 C222.417,59.019 221.772,58.374 221.772,57.579 z" fill-opacity="0" stroke="#000000" stroke-width="0.5"/>
    </g>
    <g>
      <path d="M221.772,64.779 C221.772,63.984 222.417,63.339 223.212,63.339 C224.008,63.339 224.652,63.984 224.652,64.779 C224.652,65.574 224.008,66.219 223.212,66.219 C222.417,66.219 221.772,65.574 221.772,64.779 z" fill="#FFFFFF"/>
      <path d="M221.772,64.779 C221.772,63.984 222.417,63.339 223.212,63.339 C224.008,63.339 224.652,63.984 224.652,64.779 C224.652,65.574 224.008,66.219 223.212,66.219 C222.417,66.219 221.772,65.574 221.772,64.779 z" fill-opacity="0" stroke="#000000" stroke-width="0.5"/>
    </g>
    <g>
      <path d="M221.78,71.986 C221.78,71.191 222.425,70.546 223.22,70.546 C224.015,70.546 224.66,71.191 224.66,71.986 C224.66,72.781 224.015,73.426 223.22,73.426 C222.425,73.426 221.78,72.781 221.78,71.986 z" fill="#FFFFFF"/>
      <path d="M221.78,71.986 C221.78,71.191 222.425,70.546 223.22,70.546 C224.015,70.546 224.66,71.191 224.66,71.986 C224.66,72.781 224.015,73.426 223.22,73.426 C222.425,73.426 221.78,72.781 221.78,71.986 z" fill-opacity="0" stroke="#000000" stroke-width="0.5"/>
    </g>
    <g>
      <path d="M221.772,79.179 C221.772,78.383 222.417,77.739 223.212,77.739 C224.008,77.739 224.652,78.383 224.652,79.179 C224.652,79.974 224.008,80.619 223.212,80.619 C222.417,80.619 221.772,79.974 221.772,79.179 z" fill="#FFFFFF"/>
      <path d="M221.772,79.179 C221.772,78.383 222.417,77.739 223.212,77.739 C224.008,77.739 224.652,78.383 224.652,79.179 C224.652,79.974 224.008,80.619 223.212,80.619 C222.417,80.619 221.772,79.974 221.772,79.179 z" fill-opacity="0" stroke="#000000" stroke-width="0.5"/>
    </g>
    <g>
      <path d="M221.78,86.386 C221.78,85.591 222.425,84.946 223.22,84.946 C224.015,84.946 224.66,85.591 224.66,86.386 C224.66,87.181 224.015,87.826 223.22,87.826 C222.425,87.826 221.78,87.181 221.78,86.386 z" fill="#FFFFFF"/>
      <path d="M221.78,86.386 C221.78,85.591 222.425,84.946 223.22,84.946 C224.015,84.946 224.66,85.591 224.66,86.386 C224.66,87.181 224.015,87.826 223.22,87.826 C222.425,87.826 221.78,87.181 221.78,86.386 z" fill-opacity="0" stroke="#000000" stroke-width="0.5"/>
    </g>
    <g>
      <path d="M221.78,93.579 C221.78,92.783 222.425,92.139 223.22,92.139 C224.015,92.139 224.66,92.783 224.66,93.579 C224.66,94.374 224.015,95.019 223.22,95.019 C222.425,95.019 221.78,94.374 221.78,93.579 z" fill="#FFFFFF"/>
      <path d="M221.78,93.579 C221.78,92.783 222.425,92.139 223.22,92.139 C224.015,92.139 224.66,92.783 224.66,93.579 C224.66,94.374 224.015,95.019 223.22,95.019 C222.425,95.019 221.78,94.374 221.78,93.579 z" fill-opacity="0" stroke="#000000" stroke-width="0.5"/>
    </g>
    <g>
      <path d="M221.772,100.771 C221.772,99.976 222.417,99.331 223.212,99.331 C224.008,99.331 224.652,99.976 224.652,100.771 C224.652,101.567 224.008,102.211 223.212,102.211 C222.417,102.211 221.772,101.567 221.772,100.771 z" fill="#FFFFFF"/>
      <path d="M221.772,100.771 C221.772,99.976 222.417,99.331 223.212,99.331 C224.008,99.331 224.652,99.976 224.652,100.771 C224.652,101.567 224.008,102.211 223.212,102.211 C222.417,102.211 221.772,101.567 221.772,100.771 z" fill-opacity="0" stroke="#000000" stroke-width="0.5"/>
    </g>
    <g>
      <path d="M221.78,107.979 C221.78,107.183 222.425,106.539 223.22,106.539 C224.015,106.539 224.66,107.183 224.66,107.979 C224.66,108.774 224.015,109.419 223.22,109.419 C222.425,109.419 221.78,108.774 221.78,107.979 z" fill="#FFFFFF"/>
      <path d="M221.78,107.979 C221.78,107.183 222.425,106.539 223.22,106.539 C224.015,106.539 224.66,107.183 224.66,107.979 C224.66,108.774 224.015,109.419 223.22,109.419 C222.425,109.419 221.78,108.774 221.78,107.979 z" fill-opacity="0" stroke="#000000" stroke-width="0.5"/>
    </g>
    <g>
      <path d="M221.76,115.185 C221.76,114.39 222.405,113.745 223.2,113.745 C223.995,113.745 224.64,114.39 224.64,115.185 C224.64,115.98 223.995,116.625 223.2,116.625 C222.405,116.625 221.76,115.98 221.76,115.185 z" fill="#FFFFFF"/>
      <path d="M221.76,115.185 C221.76,114.39 222.405,113.745 223.2,113.745 C223.995,113.745 224.64,114.39 224.64,115.185 C224.64,115.98 223.995,116.625 223.2,116.625 C222.405,116.625 221.76,115.98 221.76,115.185 z" fill-opacity="0" stroke="#000000" stroke-width="0.5"/>
    </g>
    <g>
      <path d="M221.767,122.393 C221.767,121.597 222.412,120.953 223.207,120.953 C224.003,120.953 224.647,121.597 224.647,122.393 C224.647,123.188 224.003,123.833 223.207,123.833 C222.412,123.833 221.767,123.188 221.767,122.393 z" fill="#FFFFFF"/>
      <path d="M221.767,122.393 C221.767,121.597 222.412,120.953 223.207,120.953 C224.003,120.953 224.647,121.597 224.647,122.393 C224.647,123.188 224.003,123.833 223.207,123.833 C222.412,123.833 221.767,123.188 221.767,122.393 z" fill-opacity="0" stroke="#000000" stroke-width="0.5"/>
    </g>
    <g>
      <path d="M221.767,129.593 C221.767,128.797 222.412,128.153 223.207,128.153 C224.003,128.153 224.647,128.797 224.647,129.593 C224.647,130.388 224.003,131.033 223.207,131.033 C222.412,131.033 221.767,130.388 221.767,129.593 z" fill="#FFFFFF"/>
      <path d="M221.767,129.593 C221.767,128.797 222.412,128.153 223.207,128.153 C224.003,128.153 224.647,128.797 224.647,129.593 C224.647,130.388 224.003,131.033 223.207,131.033 C222.412,131.033 221.767,130.388 221.767,129.593 z" fill-opacity="0" stroke="#000000" stroke-width="0.5"/>
    </g>
    <g>
      <path d="M221.775,136.8 C221.775,136.005 222.42,135.36 223.215,135.36 C224.01,135.36 224.655,136.005 224.655,136.8 C224.655,137.595 224.01,138.24 223.215,138.24 C222.42,138.24 221.775,137.595 221.775,136.8 z" fill="#FFFFFF"/>
      <path d="M221.775,136.8 C221.775,136.005 222.42,135.36 223.215,135.36 C224.01,135.36 224.655,136.005 224.655,136.8 C224.655,137.595 224.01,138.24 223.215,138.24 C222.42,138.24 221.775,137.595 221.775,136.8 z" fill-opacity="0" stroke="#000000" stroke-width="0.5"/>
    </g>
    <g>
      <path d="M214.56,50.4 C214.56,49.605 215.205,48.96 216,48.96 C216.795,48.96 217.44,49.605 217.44,50.4 C217.44,51.195 216.795,51.84 216,51.84 C215.205,51.84 214.56,51.195 214.56,50.4 z" fill="#FFFFFF"/>
      <path d="M214.56,50.4 C214.56,49.605 215.205,48.96 216,48.96 C216.795,48.96 217.44,49.605 217.44,50.4 C217.44,51.195 216.795,51.84 216,51.84 C215.205,51.84 214.56,51.195 214.56,50.4 z" fill-opacity="0" stroke="#000000" stroke-width="0.5"/>
    </g>
    <g>
      <path d="M214.567,57.607 C214.567,56.812 215.212,56.167 216.007,56.167 C216.803,56.167 217.447,56.812 217.447,57.607 C217.447,58.403 216.803,59.048 216.007,59.048 C215.212,59.048 214.567,58.403 214.567,57.607 z" fill="#FFFFFF"/>
      <path d="M214.567,57.607 C214.567,56.812 215.212,56.167 216.007,56.167 C216.803,56.167 217.447,56.812 217.447,57.607 C217.447,58.403 216.803,59.048 216.007,59.048 C215.212,59.048 214.567,58.403 214.567,57.607 z" fill-opacity="0" stroke="#000000" stroke-width="0.5"/>
    </g>
    <g>
      <path d="M214.567,64.808 C214.567,64.012 215.212,63.368 216.007,63.368 C216.803,63.368 217.447,64.012 217.447,64.808 C217.447,65.603 216.803,66.248 216.007,66.248 C215.212,66.248 214.567,65.603 214.567,64.808 z" fill="#FFFFFF"/>
      <path d="M214.567,64.808 C214.567,64.012 215.212,63.368 216.007,63.368 C216.803,63.368 217.447,64.012 217.447,64.808 C217.447,65.603 216.803,66.248 216.007,66.248 C215.212,66.248 214.567,65.603 214.567,64.808 z" fill-opacity="0" stroke="#000000" stroke-width="0.5"/>
    </g>
    <g>
      <path d="M214.575,72.015 C214.575,71.22 215.22,70.575 216.015,70.575 C216.81,70.575 217.455,71.22 217.455,72.015 C217.455,72.81 216.81,73.455 216.015,73.455 C215.22,73.455 214.575,72.81 214.575,72.015 z" fill="#FFFFFF"/>
      <path d="M214.575,72.015 C214.575,71.22 215.22,70.575 216.015,70.575 C216.81,70.575 217.455,71.22 217.455,72.015 C217.455,72.81 216.81,73.455 216.015,73.455 C215.22,73.455 214.575,72.81 214.575,72.015 z" fill-opacity="0" stroke="#000000" stroke-width="0.5"/>
    </g>
    <g>
      <path d="M214.567,79.207 C214.567,78.412 215.212,77.767 216.007,77.767 C216.803,77.767 217.447,78.412 217.447,79.207 C217.447,80.003 216.803,80.647 216.007,80.647 C215.212,80.647 214.567,80.003 214.567,79.207 z" fill="#FFFFFF"/>
      <path d="M214.567,79.207 C214.567,78.412 215.212,77.767 216.007,77.767 C216.803,77.767 217.447,78.412 217.447,79.207 C217.447,80.003 216.803,80.647 216.007,80.647 C215.212,80.647 214.567,80.003 214.567,79.207 z" fill-opacity="0" stroke="#000000" stroke-width="0.5"/>
    </g>
    <g>
      <path d="M214.575,86.415 C214.575,85.62 215.22,84.975 216.015,84.975 C216.81,84.975 217.455,85.62 217.455,86.415 C217.455,87.21 216.81,87.855 216.015,87.855 C215.22,87.855 214.575,87.21 214.575,86.415 z" fill="#FFFFFF"/>
      <path d="M214.575,86.415 C214.575,85.62 215.22,84.975 216.015,84.975 C216.81,84.975 217.455,85.62 217.455,86.415 C217.455,87.21 216.81,87.855 216.015,87.855 C215.22,87.855 214.575,87.21 214.575,86.415 z" fill-opacity="0" stroke="#000000" stroke-width="0.5"/>
    </g>
    <g>
      <path d="M214.575,93.607 C214.575,92.812 215.22,92.167 216.015,92.167 C216.81,92.167 217.455,92.812 217.455,93.607 C217.455,94.403 216.81,95.048 216.015,95.048 C215.22,95.048 214.575,94.403 214.575,93.607 z" fill="#FFFFFF"/>
      <path d="M214.575,93.607 C214.575,92.812 215.22,92.167 216.015,92.167 C216.81,92.167 217.455,92.812 217.455,93.607 C217.455,94.403 216.81,95.048 216.015,95.048 C215.22,95.048 214.575,94.403 214.575,93.607 z" fill-opacity="0" stroke="#000000" stroke-width="0.5"/>
    </g>
    <g>
      <path d="M214.567,100.8 C214.567,100.005 215.212,99.36 216.007,99.36 C216.803,99.36 217.447,100.005 217.447,100.8 C217.447,101.595 216.803,102.24 216.007,102.24 C215.212,102.24 214.567,101.595 214.567,100.8 z" fill="#FFFFFF"/>
      <path d="M214.567,100.8 C214.567,100.005 215.212,99.36 216.007,99.36 C216.803,99.36 217.447,100.005 217.447,100.8 C217.447,101.595 216.803,102.24 216.007,102.24 C215.212,102.24 214.567,101.595 214.567,100.8 z" fill-opacity="0" stroke="#000000" stroke-width="0.5"/>
    </g>
    <g>
      <path d="M214.575,108.007 C214.575,107.212 215.22,106.567 216.015,106.567 C216.81,106.567 217.455,107.212 217.455,108.007 C217.455,108.803 216.81,109.447 216.015,109.447 C215.22,109.447 214.575,108.803 214.575,108.007 z" fill="#FFFFFF"/>
      <path d="M214.575,108.007 C214.575,107.212 215.22,106.567 216.015,106.567 C216.81,106.567 217.455,107.212 217.455,108.007 C217.455,108.803 216.81,109.447 216.015,109.447 C215.22,109.447 214.575,108.803 214.575,108.007 z" fill-opacity="0" stroke="#000000" stroke-width="0.5"/>
    </g>
  </g>
  <g id="Layer_7">
    <g>
      <path d="M177.12,90.72 L197.28,90.72 L197.28,96.48 L177.12,96.48 L177.12,90.72 z" fill-opacity="0" stroke="#00E700" stroke-width="1" stroke-linecap="round" stroke-linejoin="round"/>
      <path d="M197.28,93.6 L201.6,93.6" fill-opacity="0" stroke="#00E700" stroke-width="1" stroke-linecap="round"/>
      <path d="M172.8,93.6 L177.12,93.6" fill-opacity="0" stroke="#00E700" stroke-width="1" stroke-linecap="round"/>
    </g>
    <g>
      <path d="M177.12,105.12 L197.28,105.12 L197.28,110.88 L177.12,110.88 L177.12,105.12 z" fill-opacity="0" stroke="#E60000" stroke-width="1" stroke-linecap="round" stroke-linejoin="round"/>
      <path d="M197.28,108 L201.6,108" fill-opacity="0" stroke="#E60000" stroke-width="1" stroke-linecap="round"/>
      <path d="M172.8,108 L177.12,108" fill-opacity="0" stroke="#E60000" stroke-width="1" stroke-linecap="round"/>
    </g>
    <g>
      <path d="M177.12,97.92 L197.28,97.92 L197.28,103.68 L177.12,103.68 L177.12,97.92 z" fill-opacity="0" stroke="#1000A3" stroke-width="1" stroke-linecap="round" stroke-linejoin="round"/>
      <path d="M197.28,100.8 L201.6,100.8" fill-opacity="0" stroke="#1000A3" stroke-width="1" stroke-linecap="round"/>
      <path d="M172.8,100.8 L177.12,100.8" fill-opacity="0" stroke="#1000A3" stroke-width="1" stroke-linecap="round"/>
    </g>
  </g>
  <defs/>
</svg>
